{
.appVersion = "3343";
.formatVersion = 3;
axes = (
{
name = Weight;
tag = wght;
}
);
date = "2023-03-20 22:40:29 +0000";
familyName = FONT1;
fontMaster = (
{
axesValues = (
500
);
customParameters = (
{
name = typoAscender;
value = 750;
},
{
name = typoDescender;
value = -250;
},
{
name = typoLineGap;
value = 200;
},
{
name = winAscent;
value = 950;
},
{
name = winDescent;
value = 250;
},
{
name = hheaAscender;
value = 950;
},
{
name = hheaDescender;
value = -250;
},
{
name = strikeoutPosition;
value = 250;
},
{
name = strikeoutSize;
value = 50;
}
);
id = m01;
metricValues = (
{
pos = 750;
},
{
pos = 750;
},
{
pos = 500;
},
{
},
{
pos = -250;
},
{
}
);
name = Regular;
},
{
axesValues = (
100
);
customParameters = (
{
name = typoAscender;
value = 750;
},
{
name = typoDescender;
value = -250;
},
{
name = typoLineGap;
value = 200;
},
{
name = winAscent;
value = 950;
},
{
name = winDescent;
value = 250;
},
{
name = hheaAscender;
value = 950;
},
{
name = hheaDescender;
value = -250;
},
{
name = strikeoutPosition;
value = 250;
},
{
name = strikeoutSize;
value = 50;
}
);
id = "5DE1D38C-81A0-4B83-9AA1-881E508EE934";
metricValues = (
{
pos = 750;
},
{
pos = 750;
},
{
pos = 500;
},
{
},
{
pos = -250;
},
{
}
);
name = Thin;
}
);
glyphs = (
{
glyphname = A;
layers = (
{
layerId = m01;
shapes = (
{
closed = 1;
nodes = (
(259,316,l),
(371,568,l),
(484,316,l)
);
},
{
closed = 1;
nodes = (
(415,716,l),
(375,699,l),
(137,166,ls),
(135,160,o),
(133,158,q),
(107,98,o),
(80,54,o),
(41,38,o),
(-1,38,q),
(-1,0,l),
(297,0,l),
(297,38,l),
(215,38,o),
(160,55,o),
(165,102,o),
(193,166,qs),
(237,266,l),
(506,266,l),
(551,166,ls),
(577,108,o),
(583,56,o),
(543,38,o),
(488,38,q),
(489,0,l),
(796,0,l),
(796,38,l),
(755,38,o),
(717,55,o),
(689,100,o),
(662,161,qs),
(655,178,l)
);
}
);
width = 796;
},
{
layerId = "5DE1D38C-81A0-4B83-9AA1-881E508EE934";
shapes = (
{
closed = 1;
nodes = (
(155,316,l),
(286,630,l),
(424,316,l)
);
},
{
closed = 1;
nodes = (
(355,716,l),
(314,699,l),
(76,128,l),
(75,124,o),
(73,120,qs),
(49,62,o),
(21,16,o),
(-19,0,o),
(-61,0,q),
(-61,0,l),
(237,0,l),
(237,0,l),
(164,0,o),
(86,44,o),
(67,104,o),
(77,128,qs),
(155,316,l),
(424,316,l),
(491,128,ls),
(513,66,o),
(519,17,o),
(482,0,o),
(428,0,q),
(428,0,l),
(736,0,l),
(736,0,l),
(695,0,o),
(656,17,o),
(628,63,o),
(602,123,qs),
(595,140,l)
);
}
);
width = 600;
}
);
note = A;
unicode = 65;
},
{
glyphname = B;
layers = (
{
layerId = m01;
shapes = (
{
closed = 1;
nodes = (
(224,60,l),
(224,345,l),
(303,345,ls),
(362,345,o),
(448,308,o),
(494,244,o),
(494,203,qs),
(494,126,o),
(401,60,o),
(303,60,qs)
);
},
{
closed = 1;
nodes = (
(224,405,l),
(224,644,l),
(300,644,ls),
(350,644,o),
(419,621,o),
(455,575,o),
(455,540,qs),
(455,472,o),
(382,405,o),
(303,405,qs)
);
},
{
closed = 1;
nodes = (
(424,384,l),
(502,398,o),
(565,483,o),
(565,538,qs),
(565,606,o),
(475,704,o),
(363,704,qs),
(31,704,l),
(31,667,l),
(81,667,o),
(124,637,o),
(124,595,qs),
(124,114,ls),
(124,71,o),
(80,36,o),
(31,36,q),
(31,0,l),
(299,0,ls),
(412,0,o),
(546,46,o),
(604,135,o),
(604,203,qs),
(604,244,o),
(561,320,o),
(479,373,o),
(424,379,q)
);
}
);
width = 668;
},
{
layerId = "5DE1D38C-81A0-4B83-9AA1-881E508EE934";
shapes = (
{
closed = 1;
nodes = (
(226,0,l),
(226,384,l),
(305,384,ls),
(357,384,o),
(449,338,o),
(506,251,o),
(506,192,qs),
(506,99,o),
(392,0,o),
(305,0,qs)
);
},
{
closed = 1;
nodes = (
(226,384,l),
(226,704,l),
(302,704,ls),
(340,704,o),
(402,658,o),
(437,586,o),
(437,550,qs),
(437,480,o),
(375,384,o),
(305,384,qs)
);
},
{
closed = 1;
nodes = (
(366,382,l),
(446,402,o),
(557,487,o),
(557,564,qs),
(557,629,o),
(453,704,o),
(365,704,qs),
(33,704,l),
(33,704,l),
(83,704,o),
(126,674,o),
(126,632,qs),
(126,78,ls),
(126,35,o),
(82,0,o),
(33,0,q),
(33,0,l),
(301,0,ls),
(408,0,o),
(552,43,o),
(626,133,o),
(626,203,qs),
(626,256,o),
(551,336,o),
(431,384,o),
(366,391,q)
);
}
);
width = 600;
}
);
note = B;
unicode = 66;
},
{
glyphname = C;
layers = (
{
layerId = m01;
shapes = (
{
closed = 1;
nodes = (
(606,218,l),
(570,151,o),
(496,78,o),
(419,50,o),
(373,50,qs),
(306,50,o),
(204,126,o),
(148,266,o),
(148,359,qs),
(148,437,o),
(204,579,o),
(307,666,o),
(373,666,qs),
(429,666,o),
(524,613,o),
(585,518,o),
(590,458,q),
(648,458,l),
(648,704,l),
(596,704,l),
(577,655,l),
(564,662,ls),
(514,689,o),
(433,716,o),
(373,716,qs),
(279,716,o),
(130,615,o),
(48,450,o),
(48,358,qs),
(48,265,o),
(113,103,o),
(259,0,o),
(373,0,qs),
(428,0,o),
(534,35,o),
(627,120,o),
(655,191,q)
);
}
);
width = 694;
},
{
layerId = "5DE1D38C-81A0-4B83-9AA1-881E508EE934";
shapes = (
{
closed = 1;
nodes = (
(608,191,l),
(571,109,o),
(480,26,o),
(385,0,o),
(326,0,qs),
(261,0,o),
(158,110,o),
(101,278,o),
(101,359,qs),
(101,439,o),
(158,606,o),
(261,716,o),
(326,716,qs),
(380,716,o),
(476,640,o),
(537,520,o),
(543,458,q),
(600,458,l),
(600,704,l),
(591,704,l),
(530,655,l),
(517,662,ls),
(467,689,o),
(386,716,o),
(326,716,qs),
(232,716,o),
(83,615,o),
(1,450,o),
(1,358,qs),
(1,279,o),
(68,114,o),
(214,0,o),
(326,0,qs),
(385,0,o),
(480,26,o),
(571,109,o),
(608,191,q)
);
}
);
width = 600;
}
);
note = C;
unicode = 67;
},
{
glyphname = D;
layers = (
{
layerId = m01;
shapes = (
{
closed = 1;
nodes = (
(591,258,o),
(528,124,o),
(398,59,o),
(299,59,qs),
(227,59,l),
(227,645,l),
(299,645,ls),
(388,645,o),
(520,568,o),
(591,439,o),
(591,362,qs)
);
},
{
closed = 1;
nodes = (
(701,446,o),
(619,602,o),
(438,704,o),
(299,704,qs),
(33,704,l),
(33,667,l),
(84,667,o),
(127,637,o),
(127,595,qs),
(127,114,ls),
(127,71,o),
(83,36,o),
(33,36,q),
(33,0,l),
(319,0,ls),
(515,0,o),
(701,191,o),
(701,363,qs)
);
}
);
width = 747;
},
{
layerId = "5DE1D38C-81A0-4B83-9AA1-881E508EE934";
shapes = (
{
closed = 1;
nodes = (
(511,256,o),
(446,93,o),
(315,0,o),
(219,0,qs),
(147,0,l),
(147,704,l),
(219,704,ls),
(306,704,o),
(439,600,o),
(511,441,o),
(511,362.298,qs)
);
},
{
closed = 1;
nodes = (
(621,446,o),
(539,602,o),
(358,704,o),
(219,704,qs),
(-47,704,l),
(-47,704,l),
(4,704,o),
(47,674,o),
(47,632,qs),
(47,78,ls),
(47,35,o),
(3,0,o),
(-47,0,q),
(-47,0,l),
(239,0,ls),
(435,0,o),
(621,191,o),
(621,363,qs)
);
}
);
width = 600;
}
);
note = D;
unicode = 68;
},
{
glyphname = E;
layers = (
{
layerId = m01;
shapes = (
{
closed = 1;
nodes = (
(225,60,l),
(225,337,l),
(386,337,ls),
(410,337,o),
(429,302,o),
(429,264,q),
(486,264,l),
(486,472,l),
(429,472,l),
(429,431,o),
(411,397,o),
(389,397,qs),
(225,397,l),
(225,630,l),
(477,630,ls),
(502,630,o),
(521,594,o),
(521,546,q),
(578,546,l),
(578,690,l),
(291,690,l),
(33,690,l),
(33,654,l),
(83,654,o),
(125,624,o),
(125,583,qs),
(125,112,ls),
(125,70,o),
(81,35,o),
(33,35,q),
(33,0,l),
(291,0,l),
(578,0,l),
(578,144,l),
(521,144,l),
(521,96,o),
(502,60,o),
(477,60,qs)
);
}
);
width = 620;
},
{
layerId = "5DE1D38C-81A0-4B83-9AA1-881E508EE934";
shapes = (
{
closed = 1;
nodes = (
(225,0,l),
(225,367,l),
(443,367,ls),
(467,367,o),
(486,332,o),
(486,294,q),
(486,294,l),
(486,442,l),
(486,442,l),
(486,401,o),
(468,367,o),
(446,367,qs),
(225,367,l),
(225,690,l),
(477,690,ls),
(499,690,o),
(521,595,o),
(521,546,q),
(521,546,l),
(521,690,l),
(291,690,l),
(33,690,l),
(33,690,l),
(83,690,o),
(125,660,o),
(125,619,qs),
(125,77,ls),
(125,35,o),
(81,0,o),
(33,0,q),
(33,0,l),
(291,0,l),
(521,0,l),
(521,144,l),
(521,144,l),
(521,88,o),
(500,0,o),
(477,0,qs)
);
}
);
width = 600;
}
);
note = E;
unicode = 69;
},
{
glyphname = F;
layers = (
{
layerId = m01;
shapes = (
{
closed = 1;
nodes = (
(33,0,l),
(351,0,l),
(351,37,l),
(287,37,o),
(237,71,o),
(237,114,qs),
(237,344,l),
(401,344,ls),
(420,344,o),
(437,335,o),
(445,304,o),
(445,269,q),
(502,269,l),
(502,482,l),
(445,482,l),
(445,445,o),
(437,413,o),
(422,405,o),
(404,405,qs),
(237,405,l),
(237,643,l),
(494,643,ls),
(513,643,o),
(531,634,o),
(539,598,o),
(539,557,q),
(596,557,l),
(596,704,l),
(43,704,l),
(43,667,l),
(94,667,o),
(137,637,o),
(137,595,qs),
(137,114,ls),
(137,71,o),
(90,37,o),
(33,37,q)
);
}
);
width = 622;
},
{
layerId = "5DE1D38C-81A0-4B83-9AA1-881E508EE934";
shapes = (
{
closed = 1;
nodes = (
(33,0,l),
(344,0,l),
(344,0,l),
(294,0,o),
(250,35,o),
(250,78,qs),
(250,379,l),
(417,379,ls),
(439,379,o),
(460,357,o),
(467,311,o),
(467,269,q),
(467,269,l),
(467,482,l),
(467,482,l),
(467,440,o),
(460,398,o),
(439,379,o),
(417,379,qs),
(250,379,l),
(250,704,l),
(497,704,ls),
(522,704,o),
(548,683,o),
(560,620,o),
(560,557,q),
(560,557,l),
(560,704,l),
(33,704,l),
(33,704,l),
(84,704,o),
(127,674,o),
(127,632,qs),
(127,78,ls),
(127,35,o),
(83,0,o),
(33,0,q)
);
}
);
width = 600;
}
);
note = F;
unicode = 70;
},
{
glyphname = G;
layers = (
{
layerId = m01;
shapes = (
{
closed = 1;
nodes = (
(743,359,l),
(455,359,l),
(455,319,l),
(514,319,o),
(557,300,o),
(557,274,qs),
(557,127,l),
(527,88,o),
(434,50,o),
(362,50,qs),
(295,50,o),
(203,125,o),
(158,264,o),
(158,359,qs),
(158,439,o),
(204,579,o),
(297,666,o),
(363,666,qs),
(420,666,o),
(519,617,o),
(584,522,o),
(589,458,q),
(646,458,l),
(646,704,l),
(606,704,l),
(587,655,l),
(536,682,o),
(429,716,o),
(363,716,qs),
(269,716,o),
(126,615,o),
(48,450,o),
(48,358,qs),
(48,261,o),
(122,98,o),
(264,0,o),
(362,0,qs),
(441,0,o),
(584,47,o),
(647,123,q),
(647,277,l),
(649,300,o),
(691,319,o),
(743,319,q)
);
}
);
width = 760;
},
{
layerId = "5DE1D38C-81A0-4B83-9AA1-881E508EE934";
shapes = (
{
closed = 1;
nodes = (
(696,329,l),
(398,329,l),
(398,329,l),
(457,329,o),
(500,310,o),
(500,284,qs),
(500,157,l),
(472,88,o),
(387,-9,o),
(322,-9,qs),
(261,-9,o),
(157,106,o),
(98,279,o),
(101,359,qs),
(104,442,o),
(153,607,o),
(245,716,o),
(310,716,qs),
(364,716,o),
(463,643,o),
(527,524,o),
(532,458,q),
(600,458,l),
(600,704,l),
(600,704,l),
(530,655,l),
(477,683,o),
(375,716,o),
(310,716,qs),
(217,716,o),
(79,616,o),
(5,452,o),
(1,358,qs),
(-2,277,o),
(79,105,o),
(228,-9,o),
(322,-9,qs),
(426,-9,o),
(550,79,o),
(599,153,q),
(599,287,ls),
(600,310,o),
(644,329,o),
(696,329,q)
);
}
);
width = 600;
}
);
note = G;
unicode = 71;
},
{
glyphname = H;
layers = (
{
layerId = m01;
shapes = (
{
closed = 1;
nodes = (
(646,589,ls),
(646,622,o),
(664,656,o),
(701,667,o),
(735,667,q),
(735,704,l),
(451,704,l),
(451,667,l),
(488,667,o),
(526,659,o),
(546,628,o),
(546,595,qs),
(546,393,l),
(227,393,l),
(227,589,ls),
(227,622,o),
(245,656,o),
(283,667,o),
(317,667,q),
(317,704,l),
(33,704,l),
(33,667,l),
(70,667,o),
(108,659,o),
(127,628,o),
(127,595,qs),
(127,114,ls),
(127,81,o),
(108,47,o),
(68,36,o),
(33,36,q),
(33,0,l),
(317,0,l),
(317,36,l),
(283,36,o),
(245,47,o),
(227,81,o),
(227,114,qs),
(227,333,l),
(546,333,l),
(546,114,ls),
(546,81,o),
(526,47,o),
(487,36,o),
(451,36,q),
(451,0,l),
(735,0,l),
(735,36,l),
(701,36,o),
(664,47,o),
(646,81,o),
(646,114,qs)
);
}
);
width = 769;
},
{
layerId = "5DE1D38C-81A0-4B83-9AA1-881E508EE934";
shapes = (
{
closed = 1;
nodes = (
(552,616,ls),
(552,645,o),
(570,684,o),
(610,704,o),
(641,704,q),
(641,704,l),
(357,704,l),
(357,704,l),
(390,704,o),
(432,687,o),
(452,651,o),
(452,622,qs),
(452,373,l),
(153,373,l),
(153,616,ls),
(153,645,o),
(172,684,o),
(212,704,o),
(243,704,q),
(243,704,l),
(-41,704,l),
(-41,704,l),
(-8,704,o),
(33,687,o),
(53,651,o),
(53,622,qs),
(53,88,ls),
(53,59,o),
(33,20,o),
(-9,0,o),
(-41,0,q),
(-41,0,l),
(243,0,l),
(243,0,l),
(212,0,o),
(172,20,o),
(153,59,o),
(153,88,qs),
(153,373,l),
(452,373,l),
(452,88,ls),
(452,59,o),
(431,20,o),
(389,0,o),
(357,0,q),
(357,0,l),
(641,0,l),
(641,0,l),
(610,0,o),
(570,20,o),
(552,59,o),
(552,88,qs)
);
}
);
width = 600;
}
);
note = H;
unicode = 72;
},
{
glyphname = I;
layers = (
{
layerId = m01;
shapes = (
{
closed = 1;
nodes = (
(137,595,ls),
(137,637,o),
(90,668,o),
(33,668,q),
(33,704,l),
(341,704,l),
(341,668,l),
(284,668,o),
(237,637,o),
(237,595,qs),
(237,109,ls),
(237,67,o),
(283,37,o),
(341,37,q),
(341,0,l),
(33,0,l),
(33,37,l),
(91,37,o),
(137,67,o),
(137,109,qs)
);
}
);
width = 374;
},
{
layerId = "5DE1D38C-81A0-4B83-9AA1-881E508EE934";
shapes = (
{
closed = 1;
nodes = (
(262,631,ls),
(262,673,o),
(218,704,o),
(168,704,q),
(168,704,l),
(466,704,l),
(466,704,l),
(416,704,o),
(372,673,o),
(372,631,qs),
(372,72,ls),
(372,30,o),
(416,0,o),
(466,0,q),
(466,0,l),
(168,0,l),
(168,0,l),
(218,0,o),
(262,30,o),
(262,72,qs)
);
}
);
width = 600;
}
);
note = I;
unicode = 73;
},
{
glyphname = J;
layers = (
{
layerId = m01;
shapes = (
{
closed = 1;
nodes = (
(223,45,ls),
(223,-38,o),
(181,-102,o),
(145,-102,qs),
(109,-102,o),
(68,-57,o),
(68,-11,q),
(25,-11,l),
(25,-155,l),
(145,-155,ls),
(222,-155,o),
(328,-62,o),
(328,43,qs),
(328,614,ls),
(328,641,o),
(380,662,o),
(437,662,q),
(437,704,l),
(113,704,l),
(113,662,l),
(173,662,o),
(223,642,o),
(223,614,qs)
);
}
);
width = 464;
},
{
layerId = "5DE1D38C-81A0-4B83-9AA1-881E508EE934";
shapes = (
{
closed = 1;
nodes = (
(227,45,ls),
(227,-52,o),
(192,-155,o),
(149,-155,qs),
(109,-155,o),
(72,-68,o),
(72,-11,q),
(29,-11,l),
(29,-155,l),
(149,-155,ls),
(226,-155,o),
(332,-62,o),
(332,43,qs),
(332,656,ls),
(332,683,o),
(384,704,o),
(441,704,q),
(441,704,l),
(117,704,l),
(117,704,l),
(177,704,o),
(227,684,o),
(227,656,qs)
);
}
);
width = 600;
}
);
note = J;
unicode = 74;
},
{
glyphname = K;
layers = (
{
layerId = m01;
shapes = (
{
closed = 1;
nodes = (
(341,385,l),
(572,100,ls),
(597,69,o),
(634,43,o),
(674,37,o),
(716,37,qs),
(719,37,l),
(719,0,l),
(523,0,l),
(235,358,l),
(227,358,l),
(227,114,ls),
(227,71,o),
(278,37,o),
(341,37,q),
(341,0,l),
(33,0,l),
(33,37,l),
(83,37,o),
(127,72,o),
(127,115,qs),
(127,589,ls),
(127,632,o),
(83,667,o),
(33,667,q),
(33,704,l),
(321,704,l),
(321,667,l),
(279,667,o),
(240,653,o),
(227,622,o),
(227,590,qs),
(227,418,l),
(301,418,l),
(489,627,ls),
(503,642,o),
(504,658,o),
(472,667,o),
(432,667,q),
(432,704,l),
(657,704,l),
(657,667,l),
(634,667,o),
(604,662,o),
(585,653,o),
(576,646,qs),
(567,637,o),
(558,627,qs)
);
}
);
width = 736;
},
{
layerId = "5DE1D38C-81A0-4B83-9AA1-881E508EE934";
shapes = (
{
closed = 1;
nodes = (
(305,387,l),
(522,63,ls),
(541,35,o),
(567,9,o),
(599,0,o),
(627,0,qs),
(630,0,l),
(630,0,l),
(444,0,l),
(204,358,l),
(194,358,l),
(194,77,ls),
(194,34,o),
(245,0,o),
(308,0,q),
(308,0,l),
(0,0,l),
(0,0,l),
(50,0,o),
(94,35,o),
(94,78,qs),
(94,589,ls),
(94,637,o),
(46,704,o),
(0,704,q),
(0,704,l),
(288,704,l),
(288,704,l),
(249,704,o),
(207,673,o),
(194,624,o),
(194,590,qs),
(194,418,l),
(200,418,l),
(349,595,ls),
(372,623,o),
(380,673,o),
(350,704,o),
(318,704,q),
(318,704,l),
(614,704,l),
(614,704,l),
(588,704,o),
(552,686,o),
(522,654,o),
(496,619,qs),
(462,574,o),
(434,541,qs)
);
}
);
width = 600;
}
);
note = K;
unicode = 75;
},
{
glyphname = L;
layers = (
{
layerId = m01;
shapes = (
{
closed = 1;
nodes = (
(33,704,l),
(351,704,l),
(351,667,l),
(307,667,o),
(258,655,o),
(237,624,o),
(237,594,qs),
(237,344,l),
(237,140,ls),
(237,97,o),
(279,60,o),
(327,60,qs),
(497,60,ls),
(522,60,o),
(550,98,o),
(562,147,q),
(610,147,l),
(590,0,l),
(43,0,l),
(43,36,l),
(92,36,o),
(137,71,o),
(137,114,qs),
(137,594,ls),
(137,637,o),
(91,667,o),
(33,667,q)
);
}
);
width = 641;
},
{
layerId = "5DE1D38C-81A0-4B83-9AA1-881E508EE934";
shapes = (
{
closed = 1;
nodes = (
(13,704,l),
(321,704,l),
(321,704,l),
(287,704,o),
(247,692,o),
(227,660,o),
(227,631,qs),
(227,344,l),
(227,80,ls),
(227,37,o),
(269,0,o),
(317,0,qs),
(457,0,ls),
(487,0,o),
(552,72,o),
(570,147,q),
(570,147,l),
(550,0,l),
(13,0,l),
(13,0,l),
(62,0,o),
(107,35,o),
(107,78,qs),
(107,631,ls),
(107,673,o),
(64,704,o),
(13,704,q)
);
}
);
width = 600;
}
);
note = L;
unicode = 76;
},
{
glyphname = M;
layers = (
{
layerId = m01;
shapes = (
{
closed = 1;
nodes = (
(449,104,l),
(680,704,l),
(871,704,l),
(871,667,l),
(838,667,o),
(806,659,o),
(789,628,o),
(789,595,qs),
(789,114,ls),
(789,77,o),
(806,44,o),
(837,36,o),
(871,36,q),
(871,0,l),
(610,0,l),
(610,36,l),
(643,36,o),
(673,44,o),
(689,76,o),
(689,114,qs),
(689,589,l),
(463,0,l),
(382,0,l),
(156,589,l),
(156,114,ls),
(156,76,o),
(172,43,o),
(202,36,o),
(235,36,q),
(235,0,l),
(24,0,l),
(24,36,l),
(58,36,o),
(89,43,o),
(106,76,o),
(106,114,qs),
(106,595,ls),
(106,628,o),
(89,659,o),
(57,667,o),
(24,667,q),
(24,704,l),
(219,704,l)
);
}
);
width = 895;
},
{
layerId = "5DE1D38C-81A0-4B83-9AA1-881E508EE934";
shapes = (
{
closed = 1;
nodes = (
(354,0,l),
(583,704,l),
(749,704,l),
(749,704,l),
(716,704,o),
(684,696,o),
(667,665,o),
(667,632,qs),
(667,78,ls),
(667,41,o),
(684,8,o),
(715,0,o),
(749,0,q),
(749,0,l),
(501,0,l),
(501,0,l),
(534,0,o),
(564,8,o),
(580,40,o),
(580,78,qs),
(583,704,l),
(354,0,l),
(260,0,l),
(34,626,l),
(34,78,ls),
(34,40,o),
(50,7,o),
(80,0,o),
(113,0,q),
(113,0,l),
(-48,0,l),
(-48,0,l),
(-14,0,o),
(17,7,o),
(34,40,o),
(34,78,qs),
(34,632,ls),
(34,665,o),
(17,696,o),
(-15,704,o),
(-48,704,q),
(-48,704,l),
(99,704,l)
);
}
);
width = 600;
}
);
note = M;
unicode = 77;
},
{
glyphname = N;
layers = (
{
layerId = m01;
shapes = (
{
closed = 1;
nodes = (
(576,116,l),
(225,704,l),
(33,704,l),
(33,667,l),
(72,667,o),
(108,660,o),
(127,629,o),
(127,595,qs),
(127,114,ls),
(127,77,o),
(108,44,o),
(72,36,o),
(33,36,q),
(33,0,l),
(267,0,l),
(267,36,l),
(229,36,o),
(195,44,o),
(177,77,o),
(177,114,qs),
(177,589,l),
(530,0,l),
(626,0,l),
(626,595,ls),
(626,630,o),
(644,660,o),
(678,667,o),
(715,667,q),
(715,704,l),
(481,704,l),
(481,667,l),
(520,667,o),
(556,660,o),
(576,629,o),
(576,595,qs)
);
}
);
width = 747;
},
{
layerId = "5DE1D38C-81A0-4B83-9AA1-881E508EE934";
shapes = (
{
closed = 1;
nodes = (
(672,0,l),
(224,704,l),
(83,704,l),
(83,704,l),
(122,704,o),
(158,697,o),
(177,666,o),
(177,632,qs),
(177,78,ls),
(177,41,o),
(158,8,o),
(122,0,o),
(83,0,q),
(83,0,l),
(297,0,l),
(297,0,l),
(256,0,o),
(209,8,o),
(177,42,o),
(177,78,qs),
(177,632,l),
(580,0,l),
(672,0,l),
(676,632,ls),
(676,667,o),
(694,697,o),
(728,704,o),
(765,704,q),
(765,704,l),
(581,704,l),
(581,704,l),
(620,704,o),
(656,697,o),
(676,666,o),
(676,632,qs)
);
}
);
width = 600;
}
);
note = N;
unicode = 78;
},
{
glyphname = O;
layers = (
{
layerId = m01;
shapes = (
{
closed = 1;
nodes = (
(293,41,o),
(201,125,o),
(156,272,o),
(156,366,qs),
(156,452,o),
(202,588,o),
(294,666,o),
(360,666,qs),
(426,666,o),
(519,589,o),
(566,454,o),
(566,366,qs),
(566,271,o),
(522,125,o),
(430,41,o),
(360,41,qs)
);
},
{
closed = 1;
nodes = (
(272,716,o),
(128,625,o),
(46,465,o),
(46,366,qs),
(46,261,o),
(115,92,o),
(256,-9,o),
(360,-9,qs),
(470,-9,o),
(611,92,o),
(676,261,o),
(676,367,qs),
(676,469,o),
(603,627,o),
(460,716,o),
(360,716,qs)
);
}
);
width = 722;
},
{
layerId = "5DE1D38C-81A0-4B83-9AA1-881E508EE934";
shapes = (
{
closed = 1;
nodes = (
(244,-9,o),
(155,106,o),
(106,281,o),
(106,366,qs),
(106,442,o),
(156,606,o),
(245,715,o),
(300,716,qs),
(355,716,o),
(445,608,o),
(496,444,o),
(496,366,qs),
(496,280,o),
(448,106,o),
(359,-9,o),
(300,-9,qs)
);
},
{
closed = 1;
nodes = (
(222,716,o),
(76,617,o),
(-14,455,o),
(-14,366,qs),
(-14,273,o),
(63,100,o),
(206,-9,o),
(300,-9,qs),
(400,-9,o),
(543,100,o),
(616,273,o),
(616,367,qs),
(616,458,o),
(534,619,o),
(390,716,o),
(300,716,qs)
);
}
);
width = 600;
}
);
note = O;
unicode = 79;
},
{
glyphname = P;
layers = (
{
layerId = m01;
shapes = (
{
closed = 1;
nodes = (
(227,384,l),
(227,644,l),
(302,644,ls),
(349,644,o),
(423,612,o),
(464,555,o),
(464,520,qs),
(464,480,o),
(423,418,o),
(351,384,o),
(305,384,qs)
);
},
{
closed = 1;
nodes = (
(227,324,l),
(305,324,ls),
(394,324,o),
(515,376,o),
(574,465,o),
(574,520,qs),
(574,602,o),
(446,704,o),
(308,704,qs),
(33,704,l),
(33,667,l),
(84,667,o),
(127,637,o),
(127,595,qs),
(127,115,ls),
(127,72,o),
(83,36,o),
(33,36,q),
(33,1,l),
(321,0,l),
(321,36,l),
(272,36,o),
(227,71,o),
(227,114,qs)
);
}
);
width = 588;
},
{
layerId = "5DE1D38C-81A0-4B83-9AA1-881E508EE934";
shapes = (
{
closed = 1;
nodes = (
(227,324,l),
(227,704,l),
(302,704,ls),
(347,704,o),
(421,644,o),
(464,557,o),
(464,520,qs),
(464,478,o),
(422,386,o),
(349,324,o),
(305,324,qs)
);
},
{
closed = 1;
nodes = (
(227,324,l),
(305,324,ls),
(394,324,o),
(515,376,o),
(574,465,o),
(574,520,qs),
(574,602,o),
(446,704,o),
(308,704,qs),
(33,704,l),
(33,704,l),
(84,704,o),
(127,674,o),
(127,632,qs),
(127,80,ls),
(127,37,o),
(83,1,o),
(33,1,q),
(33,1,l),
(321,0,l),
(321,0,l),
(272,0,o),
(227,36,o),
(227,79,qs)
);
}
);
width = 600;
}
);
note = P;
unicode = 80;
},
{
glyphname = Q;
layers = (
{
layerId = m01;
shapes = (
{
closed = 1;
nodes = (
(308,41,o),
(241,78,o),
(216,121,q),
(266,140,o),
(336,134,o),
(365,112,qs),
(387,95,o),
(421,51,q),
(408,46,o),
(377,41,o),
(360,41,qs)
);
},
{
closed = 1;
nodes = (
(426,666,o),
(519,589,o),
(566,454,o),
(566,366,qs),
(566,277,o),
(528,137,o),
(489,95,q),
(466,128,o),
(421,172,o),
(393,184,qs),
(350,202,o),
(238,184,o),
(196,154,q),
(156,237,o),
(156,366,qs),
(156,452,o),
(202,588,o),
(294,666,o),
(360,666,qs)
);
},
{
closed = 1;
nodes = (
(663,-93,o),
(632,-87,o),
(601,-63,o),
(578,-33,qs),
(569,-23,o),
(529,34,q),
(604,80,o),
(676,255,o),
(676,367,qs),
(676,469,o),
(603,627,o),
(460,716,o),
(360,716,qs),
(272,716,o),
(128,625,o),
(46,465,o),
(46,366,qs),
(46,261,o),
(115,92,o),
(256,-9,o),
(360,-9,qs),
(386,-9,o),
(434,-3,o),
(455,3,q),
(475,-25,o),
(524,-92,qs),
(552,-130,l),
(696,-130,l),
(696,-93,l)
);
}
);
width = 702;
},
{
layerId = "5DE1D38C-81A0-4B83-9AA1-881E508EE934";
shapes = (
{
closed = 1;
nodes = (
(254,-9,o),
(168,94,o),
(134,154,q),
(179,171,o),
(266,141,o),
(303,112,qs),
(318,101,o),
(393,3,q),
(380,-2,o),
(325,-9,o),
(298,-9,qs)
);
},
{
closed = 1;
nodes = (
(362,716,o),
(456,616,o),
(504,455,o),
(504,366,qs),
(504,277,o),
(466,137,o),
(427,95,q),
(404,128,o),
(359,172,o),
(331,184,qs),
(288,202,o),
(176,184,o),
(134,154,q),
(94,237,o),
(94,366,qs),
(94,454,o),
(141,615,o),
(233,716,o),
(297.5,716,qs)
);
},
{
closed = 1;
nodes = (
(606,-130,o),
(571,-113,o),
(544,-79,o),
(516,-37,qs),
(492,-2,o),
(467,34,q),
(542,80,o),
(614,255,o),
(614,367,qs),
(614,469,o),
(541,627,o),
(398,716,o),
(298,716,qs),
(210,716,o),
(66,625,o),
(-16,465,o),
(-16,366,qs),
(-16,261,o),
(53,92,o),
(194,-9,o),
(298,-9,qs),
(325,-9,o),
(380,-2,o),
(393,3,q),
(413,-25,o),
(462,-92,qs),
(490,-130,l),
(634,-130,l),
(634,-130,l)
);
}
);
width = 600;
}
);
note = Q;
unicode = 81;
},
{
glyphname = R;
layers = (
{
layerId = m01;
shapes = (
{
closed = 1;
nodes = (
(227,374,l),
(227,644,l),
(302,644,ls),
(351,644,o),
(424,612,o),
(464,555,o),
(464,520,qs),
(464,480,o),
(424,413,o),
(352,374,o),
(305,374,qs)
);
},
{
closed = 1;
nodes = (
(415,337,l),
(482,356,o),
(574,459,o),
(574,520,qs),
(574,602,o),
(446,704,o),
(308,704,qs),
(33,704,l),
(33,667,l),
(75,667,o),
(111,659,o),
(127,629,o),
(127,595,qs),
(127,115,ls),
(127,80,o),
(111,48,o),
(73,37,o),
(33,37,q),
(33,0,l),
(341,0,l),
(341,37,l),
(291,37,o),
(245,48,o),
(227,79,o),
(227,114,qs),
(227,324,l),
(307,324,l),
(502,0,l),
(673,0,l),
(673,37,l),
(640,37,o),
(601,49,o),
(571,79,o),
(552,111,qs)
);
}
);
width = 674;
},
{
layerId = "5DE1D38C-81A0-4B83-9AA1-881E508EE934";
shapes = (
{
closed = 1;
nodes = (
(227,324,l),
(227,704,l),
(302,704,ls),
(348,704,o),
(423,644,o),
(464,557,o),
(464,520,qs),
(464,478,o),
(424,386,o),
(352,324,o),
(307,324,qs)
);
},
{
closed = 1;
nodes = (
(416,337,l),
(483,356,o),
(574,459,o),
(574,520,qs),
(574,602,o),
(446,704,o),
(308,704,qs),
(33,704,l),
(33,704,l),
(75,704,o),
(111,696,o),
(127,666,o),
(127,632,qs),
(127,78,ls),
(127,43,o),
(111,11,o),
(73,0,o),
(33,0,q),
(33,0,l),
(341,0,l),
(341,0,l),
(291,0,o),
(245,11,o),
(227,42,o),
(227,77,qs),
(227,324,l),
(307,324,l),
(502,0,l),
(673,0,l),
(695,0,l),
(662,0,o),
(623,11,o),
(593,42,o),
(574,74,qs)
);
}
);
width = 600;
}
);
note = R;
unicode = 82;
},
{
glyphname = S;
layers = (
{
layerId = m01;
shapes = (
{
closed = 1;
nodes = (
(258,716,o),
(139,671,o),
(67,583,o),
(67,522,qs),
(67,463,o),
(114,387,o),
(223,337,o),
(318,319,qs),
(394,305,o),
(471,263,o),
(495,215,o),
(495,182,qs),
(495,148,o),
(448,83,o),
(365,42,o),
(315,42,qs),
(265,42,o),
(196,67,o),
(152,110,o),
(138,140,qs),
(117,185,l),
(53,185,l),
(53,80,l),
(95,35,o),
(218,-8,o),
(315,-8,qs),
(398,-8,o),
(529,42,o),
(604,140,o),
(604,208,qs),
(604,266,o),
(563,346,o),
(462,402,o),
(371,421,qs),
(260,444,o),
(176,511,o),
(176,555,qs),
(176,584,o),
(216,635,o),
(286,666,o),
(327,666,qs),
(377,666,o),
(439,639,o),
(470,598,o),
(476,573,qs),
(483,550,l),
(549,550,l),
(549,664,l),
(425,716,o),
(327,716,qs)
);
}
);
width = 650;
},
{
layerId = "5DE1D38C-81A0-4B83-9AA1-881E508EE934";
shapes = (
{
closed = 1;
nodes = (
(262,716,o),
(143,671,o),
(71,583,o),
(71,522,qs),
(71,470,o),
(119,392,o),
(230,336,o),
(322,319,qs),
(397,305,o),
(473,263,o),
(495,216,o),
(495,182,qs),
(495,140,o),
(464,54,o),
(383,-8,o),
(315,-8,qs),
(266,-8,o),
(165,41,o),
(88,111,o),
(74,140,qs),
(53,185,l),
(53,185,l),
(53,80,l),
(95,35,o),
(218,-8,o),
(315,-8,qs),
(397,-8,o),
(526,42,o),
(601,140,o),
(604,208,qs),
(606,256,o),
(566,338,o),
(463,403,o),
(375,421,qs),
(264,444,o),
(180,511,o),
(180,555,qs),
(180,589,o),
(210,663,o),
(277,716,o),
(331,716,qs),
(380,716,o),
(474,665,o),
(539,596,o),
(546,573,qs),
(553,550,l),
(553,550,l),
(553,664,l),
(429,716,o),
(331,716,qs)
);
}
);
width = 600;
}
);
note = S;
unicode = 83;
},
{
glyphname = T;
layers = (
{
layerId = m01;
shapes = (
{
closed = 1;
nodes = (
(23,704,l),
(23,558,l),
(80,558,l),
(80,595,o),
(88,632,o),
(107,644,o),
(125,644,qs),
(314,644,l),
(314,114,ls),
(314,76,o),
(293,43,o),
(250,36,o),
(200,36,q),
(200,0,l),
(528,0,l),
(528,36,l),
(478,36,o),
(436,43,o),
(414,76,o),
(414,114,qs),
(414,644,l),
(603,644,ls),
(621,644,o),
(640,632,o),
(648,596,o),
(648,559,q),
(705,559,l),
(705,704,l)
);
}
);
width = 727;
},
{
layerId = "5DE1D38C-81A0-4B83-9AA1-881E508EE934";
shapes = (
{
closed = 1;
nodes = (
(23,704,l),
(23,558,l),
(23,558,l),
(23,593,o),
(56,661,o),
(103,704,o),
(120,704,qs),
(314,704,l),
(314,78,ls),
(314,40,o),
(293,7,o),
(250,0,o),
(200,0,q),
(200,0,l),
(528,0,l),
(528,0,l),
(478,0,o),
(436,7,o),
(414,40,o),
(414,78,qs),
(414,704,l),
(603,704,ls),
(620,704,o),
(670,661,o),
(705,594,o),
(705,559,q),
(705,559,l),
(705,704,l)
);
}
);
width = 600;
}
);
note = T;
unicode = 84;
},
{
glyphname = U;
layers = (
{
layerId = m01;
shapes = (
{
closed = 1;
nodes = (
(600,249,ls),
(600,193,o),
(552,103,o),
(457,51,o),
(391,51,qs),
(344,51,o),
(266,104,o),
(221,195,o),
(221,249,qs),
(221,596,ls),
(221,631,o),
(235,661,o),
(270,668,o),
(311,668,q),
(311,704,l),
(27,704,l),
(27,668,l),
(70,668,o),
(106,661,o),
(121,631,o),
(121,596,qs),
(121,241,ls),
(121,154,o),
(196,42,o),
(318,-9,o),
(391,-9,qs),
(472,-9,o),
(589,57,o),
(650,171,o),
(650,241,qs),
(650,596,ls),
(650,631,o),
(664,661,o),
(698,668,o),
(739,668,q),
(739,704,l),
(495,704,l),
(495,668,l),
(546,668,o),
(586,661,o),
(600,632,o),
(600,596,qs)
);
}
);
width = 766;
},
{
layerId = "5DE1D38C-81A0-4B83-9AA1-881E508EE934";
shapes = (
{
closed = 1;
nodes = (
(560,249,ls),
(560,163,o),
(478,75,o),
(379,51,o),
(331,51,qs),
(283,51,o),
(190,105,o),
(131,196,o),
(131,249,qs),
(131,632,ls),
(131,667,o),
(145,697,o),
(180,704,o),
(221,704,q),
(221,704,l),
(-63,704,l),
(-63,704,l),
(-20,704,o),
(16,697,o),
(31,667,o),
(31,632,qs),
(31,241,ls),
(31,154,o),
(106,42,o),
(228,-9,o),
(301,-9,qs),
(387,-9,o),
(501,41,o),
(560,151,o),
(560,241,qs),
(560,632,ls),
(560,667,o),
(574,697,o),
(608,704,o),
(649,704,q),
(649,704,l),
(405,704,l),
(455,704,ls),
(506,704,o),
(546,697,o),
(560,668,o),
(560,632,qs)
);
}
);
width = 600;
}
);
note = U;
unicode = 85;
},
{
glyphname = V;
layers = (
{
layerId = m01;
shapes = (
{
closed = 1;
nodes = (
(856,704,l),
(566,704,l),
(566,667,l),
(636,667,o),
(685,648,o),
(676,583,o),
(640,505,qs),
(462,117,l),
(279,505,ls),
(242,583,o),
(233,649,o),
(280,667,o),
(344,667,q),
(342,704,l),
(10,704,l),
(10,667,l),
(51,667,o),
(92,649,o),
(132,585,o),
(170,505,qs),
(406,0,l),
(470,17,l),
(695,505,ls),
(730,581,o),
(768,643,o),
(814,667,o),
(856,667,q)
);
}
);
width = 866;
},
{
layerId = "5DE1D38C-81A0-4B83-9AA1-881E508EE934";
shapes = (
{
closed = 1;
nodes = (
(766,704,l),
(476,704,l),
(476,704,l),
(523,704,o),
(565,682,o),
(569,614,o),
(550,542,qs),
(413,27,l),
(189,542,ls),
(154,622,o),
(146,687,o),
(190,704,o),
(254,704,q),
(252,704,l),
(-80,704,l),
(-80,704,l),
(-38,704,o),
(4,687,o),
(45,622,o),
(80,542,qs),
(316,0,l),
(413,27,l),
(550,542,ls),
(568,609,o),
(636,681,o),
(717,704,o),
(766,704,q)
);
}
);
width = 600;
}
);
note = V;
unicode = 86;
},
{
glyphname = W;
layers = (
{
layerId = m01;
shapes = (
{
closed = 1;
nodes = (
(1132,704,l),
(862,704,l),
(862,667,l),
(927,667,o),
(975,652,o),
(975,606,o),
(953,551,qs),
(788,136,l),
(623,555,ls),
(603,606,o),
(608,652,o),
(661,667,o),
(724,667,q),
(724,704,l),
(397,704,l),
(397,667,l),
(432,667,o),
(468,654,o),
(497,610,o),
(515,560,qs),
(526,527,l),
(405,136,l),
(237,555,ls),
(215,609,o),
(210,652,o),
(247,667,o),
(301,667,q),
(301,704,l),
(2,704,l),
(2,667,l),
(44,667,o),
(83,648,o),
(115,589,o),
(148,507,qs),
(352,0,l),
(415,15,l),
(556,453,l),
(735,0,l),
(796,19,l),
(988,505,ls),
(1019,582,o),
(1057,648,o),
(1096,667,o),
(1132,667,q)
);
}
);
width = 1134;
},
{
layerId = "5DE1D38C-81A0-4B83-9AA1-881E508EE934";
shapes = (
{
closed = 1;
nodes = (
(837,704,l),
(612,704,l),
(612,704,l),
(658,704,o),
(702,689,o),
(714,640,o),
(703,588,qs),
(580,27,l),
(373,592,ls),
(354,643,o),
(360,689,o),
(411,704,o),
(474,704,q),
(474,704,l),
(147,704,l),
(147,704,l),
(178,704,o),
(222,659,o),
(258,580,o),
(290,496,qs),
(306,453,l),
(199,27,l),
(-13,592,ls),
(-34,647,o),
(-38,690,o),
(-2,704,o),
(51,704,q),
(51,704,l),
(-248,704,l),
(-248,704,l),
(-205,704,o),
(-165,685,o),
(-132,623,o),
(-102,544,qs),
(102,0,l),
(199,27,l),
(306,453,l),
(485,0,l),
(580,27,l),
(693,542,ls),
(709,615,o),
(750,684,o),
(798,704,o),
(837,704,q)
);
}
);
width = 600;
}
);
note = W;
unicode = 87;
},
{
glyphname = X;
layers = (
{
layerId = m01;
shapes = (
{
closed = 1;
nodes = (
(148,590,l),
(145,594,ls),
(119,631,o),
(93,658,o),
(54,668,o),
(12,668,q),
(12,704,l),
(340,704,l),
(340,668,l),
(281,668,o),
(240,659,o),
(244,628,o),
(271,590,qs),
(604,114,ls),
(628,80,o),
(661,49,o),
(703,37,o),
(740,36,q),
(740,0,l),
(412,0,l),
(412,36,l),
(472,36,o),
(514,47,o),
(508,76,o),
(484,110,qs),
(481,114,l)
);
},
{
closed = 1;
nodes = (
(491,590,ls),
(517,628,o),
(524,659,o),
(486,668,o),
(433,668,q),
(433,704,l),
(701,704,l),
(701,668,l),
(663,668,o),
(626,657,o),
(598,628,o),
(572,590,qs),
(240,114,l),
(238,112,l),
(214,78,o),
(208,49,o),
(250,37,o),
(308,36,q),
(308,0,l),
(10,0,l),
(10,36,l),
(59,36,o),
(102,45,o),
(131,74,o),
(159,114,qs)
);
}
);
width = 750;
},
{
layerId = "5DE1D38C-81A0-4B83-9AA1-881E508EE934";
shapes = (
{
closed = 1;
nodes = (
(85,626,l),
(83,630,ls),
(61,666,o),
(32,695,o),
(-8,704,o),
(-51,704,q),
(-51,704,l),
(277,704,l),
(277,704,l),
(217,704,o),
(179,697,o),
(183,667,o),
(208,626,qs),
(541,78,ls),
(562,44,o),
(596,12,o),
(639,1,o),
(677,0,q),
(677,0,l),
(349,0,l),
(349,0,l),
(409,0,o),
(449,10,o),
(443,37,o),
(421,74,qs),
(418,78,l)
);
},
{
closed = 1;
nodes = (
(509,626,ls),
(529,659,o),
(501,694,o),
(428,704,o),
(370,704,q),
(370,704,l),
(638,704,l),
(638,704,l),
(600,704,o),
(560,692,o),
(530,661,o),
(509,626,qs),
(177,78,l),
(176,76,ls),
(154,39,o),
(147,12,o),
(186,1,o),
(245,0,q),
(245,0,l),
(-53,0,l),
(-53,0,l),
(8,0,o),
(85,8,o),
(155,42,o),
(177,78,qs)
);
}
);
width = 600;
}
);
note = X;
unicode = 88;
},
{
glyphname = Y;
layers = (
{
layerId = m01;
shapes = (
{
closed = 1;
nodes = (
(285,302,l),
(285,114,ls),
(285,70,o),
(235,36,o),
(171,36,q),
(171,0,l),
(499,0,l),
(499,36,l),
(436,36,o),
(385,71,o),
(385,114,qs),
(385,302,l),
(555,618,ls),
(567,640,o),
(587,660,o),
(617,667,o),
(647,667,q),
(647,704,l),
(390,704,l),
(390,667,l),
(450,667,o),
(496,658,o),
(498,637,o),
(484,612,qs),
(357,377,l),
(217,612,ls),
(198,644,o),
(228,667,o),
(281,667,q),
(280,704,l),
(10,704,l),
(10,667,l),
(37,667,o),
(66,657,o),
(88,632,o),
(105,604,qs)
);
}
);
width = 657;
},
{
layerId = "5DE1D38C-81A0-4B83-9AA1-881E508EE934";
shapes = (
{
closed = 1;
nodes = (
(262,302,l),
(262,78,ls),
(262,34,o),
(212,0,o),
(148,0,q),
(148,0,l),
(476,0,l),
(476,0,l),
(413,0,o),
(362,35,o),
(362,78,qs),
(362,302,l),
(532,655,ls),
(540,672,o),
(561,693,o),
(596,704,o),
(624,704,q),
(624,704,l),
(435,704,l),
(435,704,l),
(492,704,o),
(538,693,o),
(541,674,o),
(532,655,qs),
(369,316,l),
(194,649,ls),
(177,681,o),
(206,704,o),
(258,704,q),
(258,704,l),
(-13,704,l),
(-13,704,l),
(14,704,o),
(44,694,o),
(67,668,o),
(82,641,qs)
);
}
);
width = 600;
}
);
note = Y;
unicode = 89;
},
{
glyphname = Z;
layers = (
{
layerId = m01;
shapes = (
{
closed = 1;
nodes = (
(205,654,ls),
(168,654,o),
(131,638,o),
(113,581,o),
(113,521,q),
(56,521,l),
(56,704,l),
(609,704,l),
(609,654,l),
(165,50,l),
(466,50,ls),
(503,50,o),
(541,69,o),
(558,125,o),
(558,183,q),
(615,183,l),
(615,0,l),
(43,0,l),
(43,50,l),
(490,654,l)
);
}
);
width = 625;
},
{
layerId = "5DE1D38C-81A0-4B83-9AA1-881E508EE934";
shapes = (
{
closed = 1;
nodes = (
(237,704,ls),
(203,704,o),
(147,663,o),
(113,580,o),
(113,521,q),
(113,521,l),
(113,704,l),
(609,704,l),
(609,654,l),
(130,0,l),
(466,0,ls),
(500,0,o),
(541,42,o),
(558,122,o),
(558,183,q),
(558,183,l),
(558,0,l),
(43,0,l),
(43,50,l),
(522,704,l)
);
}
);
width = 600;
}
);
note = Z;
unicode = 90;
},
{
glyphname = a;
layers = (
{
layerId = m01;
shapes = (
{
closed = 1;
nodes = (
(181,48,o),
(146,70,o),
(125,105,o),
(125,125,qs),
(125,177,o),
(185,232,o),
(272,254,o),
(346,263,qs),
(351,264,o),
(356,264,q),
(356,151,l),
(325,102,o),
(256,48,o),
(201,48,qs)
);
},
{
closed = 1;
nodes = (
(446,254,ls),
(447,347,o),
(403,458,o),
(308,509,o),
(231,509,qs),
(184,509,o),
(88,478,o),
(64,456,q),
(64,351,l),
(114,351,l),
(114,394,o),
(145,443,o),
(197,463,o),
(231,463,qs),
(279,463,o),
(334,410,o),
(354,338,o),
(354,303,q),
(229,296,o),
(43,221,o),
(43,136,qs),
(43,-9,o),
(200,-9,qs),
(251,-9,o),
(335,58,o),
(356,101,q),
(356,0,l),
(540,34,l),
(540,71,l),
(500,71,o),
(462,79,o),
(445,106,o),
(445,135,qs)
);
}
);
width = 543;
},
{
layerId = "5DE1D38C-81A0-4B83-9AA1-881E508EE934";
shapes = (
{
closed = 1;
nodes = (
(174,-9,o),
(137,32,o),
(116,95,o),
(119,125,qs),
(124,179,o),
(181,255,o),
(275,297,o),
(337,302,q),
(340,303,o),
(348,303,q),
(350,101,l),
(317,49,o),
(249,-9,o),
(194,-9,qs)
);
},
{
closed = 1;
nodes = (
(440,254,ls),
(441,347,o),
(396,458,o),
(302,509,o),
(225,509,qs),
(179,509,o),
(93,479,o),
(68,456,q),
(68,351,l),
(108,351,l),
(108,395,o),
(140,467,o),
(194,509,o),
(225,509,qs),
(272,509,o),
(327,435,o),
(348,341,o),
(348,303,q),
(223,296,o),
(37,221,o),
(37,136,qs),
(37,-9,o),
(194,-9,qs),
(249,-9,o),
(317,49,o),
(350,101,q),
(350,0,l),
(534,34,l),
(534,34,l),
(494,34,o),
(456,42,o),
(439,69,o),
(439,98,qs)
);
}
);
width = 582;
}
);
note = a;
unicode = 97;
},
{
glyphname = b;
layers = (
{
layerId = m01;
shapes = (
{
closed = 1;
nodes = (
(290,36,o),
(228,77,o),
(189,127,o),
(188,135,q),
(188,339,ls),
(188,346,o),
(228,397,o),
(294,439,o),
(334,439,qs),
(396,439,o),
(468,341,o),
(468,259,qs),
(468,160,o),
(397,36,o),
(327,36,qs)
);
},
{
closed = 1;
nodes = (
(322,500,o),
(247,465,o),
(195,417,o),
(186,400,q),
(186,743,l),
(2,711,l),
(2,665,l),
(55,665,o),
(98,650,o),
(98,620,qs),
(98,0,l),
(168,0,l),
(191,66,l),
(199,51,o),
(243,16,o),
(311,-10,o),
(352,-10,qs),
(424,-10,o),
(523,69,o),
(570,193,o),
(570,259,qs),
(570,335,o),
(513,444,o),
(418,500,o),
(362,500,qs)
);
}
);
width = 609;
},
{
layerId = "5DE1D38C-81A0-4B83-9AA1-881E508EE934";
shapes = (
{
closed = 1;
nodes = (
(312,-10,o),
(241,16,o),
(191,52,o),
(184,66,q),
(184,400,l),
(193,417,o),
(245,465,o),
(320,500,o),
(360,500,qs),
(417,500,o),
(466,357,o),
(466,259,qs),
(466,144,o),
(416,-10,o),
(350,-10,qs)
);
},
{
closed = 1;
nodes = (
(320,500,o),
(245,465,o),
(193,417,o),
(184,400,q),
(184,743,l),
(0,711,l),
(0,711,l),
(53,711,o),
(96,696,o),
(96,666,qs),
(96,0,l),
(116,0,l),
(184,66,l),
(191,52,o),
(241,16,o),
(312,-10,o),
(350,-10,qs),
(422,-10,o),
(521,69,o),
(568,193,o),
(568,259,qs),
(568,335,o),
(511,444,o),
(416,500,o),
(360,500,qs)
);
}
);
width = 641;
}
);
note = b;
unicode = 98;
},
{
glyphname = c;
layers = (
{
layerId = m01;
shapes = (
{
closed = 1;
nodes = (
(440,174,l),
(423,113,o),
(340,51,o),
(285,51,qs),
(236,51,o),
(170,95,o),
(137,184,o),
(137,251,qs),
(137,308,o),
(170,405,o),
(237,463,o),
(285,463,qs),
(324,463,o),
(390,424,o),
(427,359,o),
(427,322,q),
(498,322,l),
(498,500,l),
(461,500,l),
(447,465,l),
(410,485,o),
(333,509,o),
(285,509,qs),
(217,509,o),
(103,436,o),
(37,316,o),
(37,250,qs),
(37,185,o),
(91,67,o),
(203,-9,o),
(285,-9,qs),
(353,-9,o),
(470,75,o),
(493,156,q)
);
}
);
width = 508;
},
{
layerId = "5DE1D38C-81A0-4B83-9AA1-881E508EE934";
shapes = (
{
closed = 1;
nodes = (
(493,156,l),
(470,75,o),
(353,-9,o),
(285,-9,qs),
(238,-9,o),
(171,63,o),
(137,182,o),
(137,251,qs),
(137,310,o),
(171,430,o),
(238,509,o),
(285,509,qs),
(323,509,o),
(389,449,o),
(427,361,o),
(427,322,q),
(498,322,l),
(498,500,l),
(498,500,l),
(447,465,l),
(410,485,o),
(333,509,o),
(285,509,qs),
(217,509,o),
(103,436,o),
(37,316,o),
(37,250,qs),
(37,185,o),
(91,67,o),
(203,-9,o),
(285,-9,qs),
(353,-9,o),
(470,75,o),
(493,156,q)
);
}
);
width = 540;
}
);
note = c;
unicode = 99;
},
{
glyphname = d;
layers = (
{
layerId = m01;
shapes = (
{
closed = 1;
nodes = (
(418,154,l),
(417,146,o),
(377,92,o),
(315,47,o),
(278,47,qs),
(207,47,o),
(137,156,o),
(137,253,qs),
(137,347,o),
(205,463,o),
(271,463,qs),
(311,463,o),
(377,417,o),
(418,360,o),
(418,353,qs)
);
},
{
closed = 1;
nodes = (
(507,748,l),
(324,714,l),
(324,677,l),
(373,677,o),
(420,655,o),
(420,621,qs),
(421,425,l),
(413,441,o),
(361,481,o),
(286,509,o),
(245,509,qs),
(187,509,o),
(92,449,o),
(37,333,o),
(37,253,qs),
(37,137,o),
(146,-9,o),
(255,-9,qs),
(296,-9,o),
(365,23,o),
(411,66,o),
(419,82,q),
(419,0,l),
(604,35,l),
(604,72,l),
(550,72,o),
(508,94,o),
(508,130,qs)
);
}
);
width = 627;
},
{
layerId = "5DE1D38C-81A0-4B83-9AA1-881E508EE934";
shapes = (
{
closed = 1;
nodes = (
(419,82,l),
(411,66,o),
(365,23,o),
(296,-9,o),
(255,-9,qs),
(188,-9,o),
(137,140,o),
(137,253,qs),
(137,363,o),
(183,509,o),
(245,509,qs),
(286,509,o),
(361,481,o),
(413,441,o),
(421,425,q)
);
},
{
closed = 1;
nodes = (
(507,748,l),
(324,714,l),
(324,714,l),
(373,714,o),
(420,692,o),
(420,658,qs),
(421,425,l),
(413,441,o),
(361,481,o),
(286,509,o),
(245,509,qs),
(187,509,o),
(92,449,o),
(37,333,o),
(37,253,qs),
(37,137,o),
(146,-9,o),
(255,-9,qs),
(296,-9,o),
(365,23,o),
(411,66,o),
(419,82,q),
(419,0,l),
(604,35,l),
(604,35,l),
(550,35,o),
(508,57,o),
(508,93,qs)
);
}
);
width = 641;
}
);
note = d;
unicode = 100;
},
{
glyphname = e;
layers = (
{
layerId = m01;
shapes = (
{
closed = 1;
nodes = (
(329,463,o),
(396,371,o),
(406,306,q),
(143,306,l),
(151,349,o),
(183,419,o),
(237,463,o),
(274,463,qs)
);
},
{
closed = 1;
nodes = (
(457,184,l),
(439,116,o),
(341,41,o),
(284,41,qs),
(239,41,o),
(174,84,o),
(137,181,o),
(137,260,q),
(502,259,l),
(502,328,o),
(442,442,o),
(337,509,o),
(274,509,qs),
(206,509,o),
(98,436,o),
(37,316,o),
(37,250,qs),
(37,151,o),
(143,-9,o),
(284,-9,qs),
(361,-9,o),
(481,81,o),
(502,176,q)
);
}
);
width = 536;
},
{
layerId = "5DE1D38C-81A0-4B83-9AA1-881E508EE934";
shapes = (
{
closed = 1;
nodes = (
(326,509,o),
(388,364,o),
(401,279,q),
(138,279,l),
(137,321,o),
(174,431,o),
(237,509,o),
(274,509,qs)
);
},
{
closed = 1;
nodes = (
(502,176,l),
(481,81,o),
(361,-9,o),
(284,-9,qs),
(242,-9,o),
(176,67,o),
(138,198,o),
(138,279,q),
(502,279,l),
(502,338,o),
(441,444,o),
(337,509,o),
(274,509,qs),
(206,509,o),
(98,436,o),
(37,316,o),
(37,250,qs),
(37,151,o),
(143,-9,o),
(284,-9,qs),
(361,-9,o),
(481,81,o),
(502,176,q)
);
}
);
width = 575;
}
);
note = e;
unicode = 101;
},
{
glyphname = f;
layers = (
{
layerId = m01;
shapes = (
{
closed = 1;
nodes = (
(281,750,ls),
(215,750,o),
(125,669,o),
(125,577,qs),
(125,500,l),
(44,500,l),
(24,454,l),
(125,454,l),
(125,79,ls),
(125,55,o),
(81,37,o),
(32,37,q),
(32,0,l),
(309,0,l),
(309,37,l),
(257,37,o),
(215,54,o),
(215,79,qs),
(215,454,l),
(328,454,l),
(348,500,l),
(215,500,l),
(215,575,ls),
(215,648,o),
(250,704,o),
(281,704,qs),
(301,704,o),
(330,687,o),
(347,651,o),
(347,624,q),
(384,624,l),
(384,750,l)
);
}
);
width = 384;
},
{
layerId = "5DE1D38C-81A0-4B83-9AA1-881E508EE934";
shapes = (
{
closed = 1;
nodes = (
(281,750,ls),
(215,750,o),
(125,669,o),
(125,577,qs),
(125,470,l),
(44,470,l),
(24,470,l),
(125,470,l),
(125,42,ls),
(125,18,o),
(81,0,o),
(32,0,q),
(32,0,l),
(309,0,l),
(309,0,l),
(257,0,o),
(215,17,o),
(215,42,qs),
(215,470,l),
(328,470,l),
(348,470,l),
(215,470,l),
(215,575,ls),
(215,652,o),
(253,750,o),
(281,750,qs),
(307,750,o),
(355,711,o),
(384,652,o),
(384,624,q),
(384,624,l),
(384,750,l)
);
}
);
width = 389;
}
);
note = f;
unicode = 102;
},
{
glyphname = g;
layers = (
{
layerId = m01;
shapes = (
{
closed = 1;
nodes = (
(212,238,o),
(171,267,o),
(145,320,o),
(145,355,qs),
(145,386,o),
(171,436,o),
(212,463,o),
(234,463,qs),
(260,463,o),
(302,437,o),
(325,388,o),
(325,355,qs),
(325,320,o),
(302,267,o),
(260,238,o),
(234,238,qs)
);
},
{
closed = 1;
nodes = (
(377,-108,o),
(334,-161,o),
(269,-188,o),
(235,-188,qs),
(201,-188,o),
(142,-161,o),
(105,-109,o),
(105,-72,qs),
(105,-49,o),
(132,14,o),
(153,36,q),
(168,31,o),
(206,22,o),
(225,18,qs),
(237,16,o),
(249,13,qs),
(326,-3,o),
(377,-49,o),
(377,-72,qs)
);
},
{
closed = 1;
nodes = (
(488,421,l),
(505,467,l),
(365,479,l),
(326,494,o),
(267,509,o),
(234,509,qs),
(189,509,o),
(106,465,o),
(55,394,o),
(55,355,qs),
(55,319,o),
(78,256,o),
(104,233,q),
(92,221,o),
(86,210,qs),
(78,197,o),
(69,167,o),
(69,149,qs),
(69,123,o),
(93,78,o),
(114,61,q),
(72,42,o),
(15,-34,o),
(15,-72,qs),
(15,-151,o),
(124,-234,o),
(235,-234,qs),
(306,-234,o),
(416,-194,o),
(477,-121,o),
(477,-72,qs),
(477,-10,o),
(385,76,o),
(287,95,qs),
(257,101,ls),
(192,116,o),
(146,146,o),
(146,172,qs),
(146,178,o),
(148,189,o),
(150,194,qs),
(153,199,o),
(156,203,q),
(191,192,o),
(233,192,qs),
(281,192,o),
(364,229,o),
(415,302,o),
(415,355,qs),
(415,369,o),
(403,410,o),
(393,426,q)
);
}
);
width = 503;
},
{
layerId = "5DE1D38C-81A0-4B83-9AA1-881E508EE934";
shapes = (
{
closed = 1;
nodes = (
(255,192,o),
(213,243,o),
(187,319,o),
(187,355,qs),
(187,387,o),
(213,460,o),
(255,509,o),
(276,509,qs),
(301,509,o),
(343,461,o),
(367,389,o),
(367,355,qs),
(367,318,o),
(343,242,o),
(301,192,o),
(276,192,qs)
);
},
{
closed = 1;
nodes = (
(419,-131,o),
(387,-196,o),
(323,-234,o),
(277,-234,qs),
(228,-234,o),
(150,-186,o),
(107,-111,o),
(107,-72,qs),
(107,-47,o),
(136,40,o),
(156,61,q),
(171,52,o),
(233,31,o),
(261,22,qs),
(276,18,o),
(291,13,qs),
(358,-8,o),
(419,-65,o),
(419,-91,qs)
);
},
{
closed = 1;
nodes = (
(547,467,l),
(547,467,l),
(404,476,l),
(377,497,o),
(319,509,o),
(276,509,qs),
(231,509,o),
(148,465,o),
(97,394,o),
(97,355,qs),
(97,313,o),
(131,234,o),
(174,212,q),
(170,208,o),
(149,194,qs),
(129,183,o),
(111,165,o),
(111,149,qs),
(111,123,o),
(135,78,o),
(156,61,q),
(114,42,o),
(57,-34,o),
(57,-72,qs),
(57,-151,o),
(166,-234,o),
(277,-234,qs),
(348,-234,o),
(458,-194,o),
(519,-121,o),
(519,-72,qs),
(519,-13,o),
(431,56,o),
(329,75,qs),
(297,81,ls),
(200,99,o),
(111,127,o),
(111,149,qs),
(111,165,o),
(129,183,o),
(149,194,qs),
(170,208,o),
(174,212,q),
(215,192,o),
(275,192,qs),
(323,192,o),
(406,229,o),
(457,302,o),
(457,355,qs),
(457,385,o),
(431,455,o),
(404,476,q)
);
}
);
width = 606;
}
);
note = g;
unicode = 103;
},
{
glyphname = h;
layers = (
{
layerId = m01;
shapes = (
{
closed = 1;
nodes = (
(526,263,ls),
(529,385,o),
(447,508,o),
(355,508,qs),
(308,508,o),
(221,442,o),
(197,398,q),
(197,750,l),
(23,715,l),
(23,678,l),
(64,678,o),
(109,659,o),
(109,631,qs),
(109,82,ls),
(109,57,o),
(69,37,o),
(27,37,q),
(27,0,l),
(284,0,l),
(284,37,l),
(239,37,o),
(197,57,o),
(197,82,qs),
(197,339,l),
(224,383,o),
(295,426,o),
(334,426,qs),
(369,426,o),
(409,395,o),
(425,328,o),
(426,269,qs),
(426,264,l),
(426,82,ls),
(426,57,o),
(389,37,o),
(346,37,q),
(346,0,l),
(603,0,l),
(603,37,l),
(562,37,o),
(526,57,o),
(526,82,qs)
);
}
);
width = 622;
},
{
layerId = "5DE1D38C-81A0-4B83-9AA1-881E508EE934";
shapes = (
{
closed = 1;
nodes = (
(526,263,ls),
(529,385,o),
(447,508,o),
(355,508,qs),
(308,508,o),
(227,448,o),
(197,398,q),
(197,750,l),
(23,715,l),
(23,715,l),
(64,715,o),
(109,696,o),
(109,668,qs),
(109,45,ls),
(109,20,o),
(69,0,o),
(27,0,q),
(27,0,l),
(284,0,l),
(284,0,l),
(239,0,o),
(197,20,o),
(197,45,qs),
(197,398,l),
(227,448,o),
(308,508,o),
(355,508,qs),
(388,508,o),
(419,441,o),
(426,347,o),
(426,269,qs),
(426,264,l),
(426,45,ls),
(426,20,o),
(389,0,o),
(346,0,q),
(346,0,l),
(603,0,l),
(603,0,l),
(562,0,o),
(526,20,o),
(526,45,qs)
);
}
);
width = 640;
}
);
note = h;
unicode = 104;
},
{
glyphname = i;
layers = (
{
layerId = m01;
shapes = (
{
closed = 1;
nodes = (
(210,55,o),
(250,37,o),
(301,37,q),
(301,0,l),
(24,0,l),
(24,37,l),
(78,37,o),
(120,56,o),
(120,86,qs),
(120,390,ls),
(120,413,o),
(85,426,o),
(46,426,q),
(46,463,l),
(210,500,l),
(210,86,ls)
);
},
{
closed = 1;
nodes = (
(180,580,o),
(208,609,o),
(208,635,qs),
(208,661,o),
(180,690,o),
(159,690,qs),
(138,690,o),
(108,661,o),
(108,635,qs),
(108,609,o),
(138,580,o),
(159,580,qs)
);
}
);
width = 325;
},
{
layerId = "5DE1D38C-81A0-4B83-9AA1-881E508EE934";
shapes = (
{
closed = 1;
nodes = (
(210,18,o),
(250,0,o),
(301,0,q),
(301,0,l),
(24,0,l),
(24,0,l),
(78,0,o),
(120,19,o),
(120,49,qs),
(120,427,ls),
(120,450,o),
(85,463,o),
(46,463,q),
(46,463,l),
(210,500,l),
(210,49,ls)
);
},
{
closed = 1;
nodes = (
(180,580,o),
(208,609,o),
(208,635,qs),
(208,661,o),
(180,690,o),
(159,690,qs),
(138,690,o),
(108,661,o),
(108,635,qs),
(108,609,o),
(138,580,o),
(159,580,qs)
);
}
);
width = 322;
}
);
note = i;
unicode = 105;
},
{
glyphname = j;
layers = (
{
layerId = m01;
shapes = (
{
closed = 1;
nodes = (
(118,562,o),
(151,596,o),
(151,626,qs),
(151,656,o),
(118,690,o),
(94,690,qs),
(69,690,o),
(35,656,o),
(35,626,qs),
(35,596,o),
(69,562,o),
(94,562,qs)
);
},
{
closed = 1;
nodes = (
(66,32,l),
(66,371,ls),
(66,402,o),
(-1,402,q),
(-1,435,l),
(148,469,l),
(148,371,l),
(148,32,l),
(148,-80,ls),
(148,-162,o),
(57,-236,o),
(-4,-236,qs),
(-90,-236,l),
(-90,-122,l),
(-56,-122,l),
(-56,-160,o),
(-31,-194,o),
(-4,-194,qs),
(14,-194,o),
(46,-174,o),
(66,-122,o),
(66,-78,qs)
);
}
);
width = 173;
},
{
layerId = "5DE1D38C-81A0-4B83-9AA1-881E508EE934";
shapes = (
{
closed = 1;
nodes = (
(268,562,o),
(301,596,o),
(301,626,qs),
(301,656,o),
(268,690,o),
(244,690,qs),
(219,690,o),
(185,656,o),
(185,626,qs),
(185,596,o),
(219,562,o),
(244,562,qs)
);
},
{
closed = 1;
nodes = (
(216,32,l),
(216,404,ls),
(216,435,o),
(149,435,q),
(149,435,l),
(298,469,l),
(298,371,l),
(298,32,l),
(298,-80,ls),
(298,-162,o),
(207,-236,o),
(146,-236,qs),
(60,-236,l),
(60,-122,l),
(94,-122,l),
(94,-165,o),
(122,-236,o),
(146,-236,qs),
(162,-236,o),
(195,-196,o),
(216,-123,o),
(216,-78,qs)
);
}
);
width = 355;
}
);
note = j;
unicode = 106;
},
{
glyphname = k;
layers = (
{
layerId = m01;
shapes = (
{
closed = 1;
nodes = (
(461,0,l),
(616,0,l),
(616,37,l),
(571,37,o),
(531,56,o),
(509,86,qs),
(337,323,l),
(389,372,l),
(399,382,ls),
(443,423,o),
(487,456,o),
(516,463,o),
(543,463,q),
(543,500,l),
(319,500,l),
(319,463,l),
(378,463,o),
(398,442,o),
(363,411,qs),
(284,340,l),
(210,340,l),
(210,750,l),
(34,697,l),
(34,660,l),
(79,660,o),
(120,633,o),
(120,602,qs),
(120,116,ls),
(120,71,o),
(77,37,o),
(24,37,q),
(24,0,l),
(301,0,l),
(301,37,l),
(253,37,o),
(210,71,o),
(210,116,qs),
(210,294,l),
(246,294,l)
);
}
);
width = 625;
},
{
layerId = "5DE1D38C-81A0-4B83-9AA1-881E508EE934";
shapes = (
{
closed = 1;
nodes = (
(461,0,l),
(616,0,l),
(616,0,l),
(570,0,o),
(529,18,o),
(509,49,qs),
(337,323,l),
(432,411,l),
(439,418,ls),
(475,452,o),
(513,483,o),
(551,500,o),
(573,500,q),
(573,500,l),
(388,500,l),
(388,500,l),
(450,500,o),
(479,455,o),
(432,411,qs),
(337,323,l),
(210,323,l),
(210,750,l),
(34,697,l),
(34,697,l),
(79,697,o),
(120,670,o),
(120,639,qs),
(120,79,ls),
(120,34,o),
(77,0,o),
(24,0,q),
(24,0,l),
(301,0,l),
(301,0,l),
(253,0,o),
(210,34,o),
(210,79,qs),
(210,323,l),
(258,323,l)
);
}
);
width = 648;
}
);
note = k;
unicode = 107;
},
{
glyphname = l;
layers = (
{
layerId = m01;
shapes = (
{
closed = 1;
nodes = (
(209,116,ls),
(209,72,o),
(251,37,o),
(300,37,q),
(300,0,l),
(23,0,l),
(23,37,l),
(74,37,o),
(119,73,o),
(119,116,qs),
(119,602,ls),
(119,628,o),
(102,653,o),
(64,661,o),
(25,661,q),
(25,697,l),
(209,750,l)
);
}
);
width = 323;
},
{
layerId = "5DE1D38C-81A0-4B83-9AA1-881E508EE934";
shapes = (
{
closed = 1;
nodes = (
(201,79,ls),
(201,35,o),
(243,0,o),
(292,0,q),
(292,0,l),
(15,0,l),
(15,0,l),
(66,0,o),
(111,36,o),
(111,79,qs),
(111,638,ls),
(111,664,o),
(94,689,o),
(56,697,o),
(17,697,q),
(17,697,l),
(201,750,l)
);
}
);
width = 307;
}
);
note = l;
unicode = 108;
},
{
glyphname = m;
layers = (
{
layerId = m01;
shapes = (
{
closed = 1;
nodes = (
(794,264,ls),
(794,390,o),
(723,510,o),
(633,510,qs),
(586,510,o),
(499,434,o),
(481,388,q),
(481,387,ls),
(466,449,o),
(396,510,o),
(332,510,qs),
(286,510,o),
(217,448,o),
(191,400,q),
(191,501,l),
(27,467,l),
(27,430,l),
(67,430,o),
(101,420,o),
(101,404,qs),
(101,73,ls),
(101,55,o),
(57,37,o),
(24,37,q),
(24,0,l),
(270,0,l),
(270,37,l),
(191,37,o),
(191,73,qs),
(191,341,l),
(219,387,o),
(273,427,o),
(311,427,qs),
(357,427,o),
(401,372,o),
(402,342,qs),
(402,341,l),
(403,73,ls),
(403,55,o),
(358,37,o),
(325,37,q),
(325,0,l),
(571,0,l),
(571,37,l),
(492,37,o),
(492,73,qs),
(492,341,l),
(521,388,o),
(575,427,o),
(613,427,qs),
(649,427,o),
(688,395,o),
(704,325,o),
(704,265,qs),
(704,73,ls),
(704,55,o),
(659,37,o),
(626,37,q),
(626,0,l),
(872,0,l),
(872,37,l),
(794,37,o),
(794,73,qs)
);
}
);
width = 891;
},
{
layerId = "5DE1D38C-81A0-4B83-9AA1-881E508EE934";
shapes = (
{
closed = 1;
nodes = (
(794,264,ls),
(794,390,o),
(723,510,o),
(633,510,qs),
(597,510,o),
(512,437,o),
(481,387,q),
(481,387,l),
(466,449,o),
(396,510,o),
(332,510,qs),
(295,510,o),
(220,449,o),
(191,400,q),
(191,501,l),
(27,467,l),
(27,467,l),
(67,467,o),
(101,457,o),
(101,441,qs),
(101,36,ls),
(101,18,o),
(57,0,o),
(24,0,q),
(24,0,l),
(270,0,l),
(270,0,l),
(191,0,o),
(191,36,qs),
(191,400,l),
(220,449,o),
(295,510,o),
(332,510,qs),
(377,510,o),
(402,400,o),
(402,342,qs),
(402,341,l),
(403,36,ls),
(403,18,o),
(358,0,o),
(325,0,q),
(325,0,l),
(561,0,l),
(561,0,l),
(482,0,o),
(482,36,qs),
(481,387,l),
(512,437,o),
(597,510,o),
(633,510,qs),
(666,510,o),
(697,441,o),
(704,344,o),
(704,265,qs),
(704,36,ls),
(704,18,o),
(659,0,o),
(626,0,q),
(626,0,l),
(872,0,l),
(872,0,l),
(794,0,o),
(794,36,qs)
);
}
);
width = 943;
}
);
note = m;
unicode = 109;
},
{
glyphname = n;
layers = (
{
layerId = m01;
shapes = (
{
closed = 1;
nodes = (
(529,260,ls),
(529,386,o),
(449,509,o),
(356,509,qs),
(308,509,o),
(218,444,o),
(194,399,q),
(194,500,l),
(30,465,l),
(30,428,l),
(70,428,o),
(104,417,o),
(104,401,qs),
(104,74,ls),
(104,57,o),
(57,37,o),
(24,37,q),
(24,0,l),
(285,0,l),
(285,37,l),
(247,37,o),
(194,57,o),
(194,74,qs),
(194,338,l),
(221,384,o),
(294,427,o),
(335,427,qs),
(372,427,o),
(412,394,o),
(429,323,o),
(429,261,qs),
(429,74,ls),
(429,57,o),
(382,37,o),
(349,37,q),
(349,0,l),
(610,0,l),
(610,37,l),
(574,36,o),
(529,57,o),
(529,74,qs)
);
}
);
width = 629;
},
{
layerId = "5DE1D38C-81A0-4B83-9AA1-881E508EE934";
shapes = (
{
closed = 1;
nodes = (
(529,260,ls),
(529,386,o),
(449,509,o),
(356,509,qs),
(318,509,o),
(217,440,o),
(194,399,q),
(194,500,l),
(30,465,l),
(30,465,l),
(68,465,o),
(104,443,o),
(104,418,qs),
(104,37,ls),
(104,20,o),
(57,0,o),
(24,0,q),
(24,0,l),
(285,0,l),
(285,0,l),
(247,0,o),
(194,20,o),
(194,37,qs),
(194,399,l),
(217,440,o),
(318,509,o),
(356,509,qs),
(390,509,o),
(422,440,o),
(429,342,o),
(429,261,qs),
(429,37,ls),
(429,20,o),
(382,0,o),
(349,0,q),
(349,0,l),
(610,0,l),
(610,0,l),
(574,-1,o),
(529,20,o),
(529,37,qs)
);
}
);
width = 646;
}
);
note = n;
unicode = 110;
},
{
glyphname = o;
layers = (
{
layerId = m01;
shapes = (
{
closed = 1;
nodes = (
(234,37,o),
(173,98,o),
(143,199,o),
(143,259,qs),
(143,314,o),
(173,406,o),
(233,463,o),
(276,463,qs),
(318,463,o),
(380,408,o),
(412,315,o),
(412,259,qs),
(412,198,o),
(383,97,o),
(322,37,o),
(277,37,qs)
);
},
{
closed = 1;
nodes = (
(212,509,o),
(102,442,o),
(37,328,o),
(37,259,qs),
(37,187,o),
(92,65,o),
(200,-9,o),
(277,-9,qs),
(358,-9,o),
(466,65,o),
(518,187,o),
(518,260,qs),
(518,330,o),
(460,444,o),
(351,509,o),
(277,509,qs)
);
}
);
width = 555;
},
{
layerId = "5DE1D38C-81A0-4B83-9AA1-881E508EE934";
shapes = (
{
closed = 1;
nodes = (
(235,-9,o),
(174,73,o),
(143,197,o),
(143,259,qs),
(143,315,o),
(174,431,o),
(234,509,o),
(276,509,qs),
(318,509,o),
(379,432,o),
(412,316,o),
(412,259,qs),
(412,196,o),
(383,72,o),
(322,-9,o),
(277,-9,qs)
);
},
{
closed = 1;
nodes = (
(212,509,o),
(102,442,o),
(37,328,o),
(37,259,qs),
(37,187,o),
(92,65,o),
(200,-9,o),
(277,-9,qs),
(358,-9,o),
(466,65,o),
(518,187,o),
(518,260,qs),
(518,330,o),
(460,444,o),
(351,509,o),
(277,509,qs)
);
}
);
width = 551;
}
);
note = o;
unicode = 111;
},
{
glyphname = p;
layers = (
{
layerId = m01;
shapes = (
{
closed = 1;
nodes = (
(197,67,l),
(205,52,o),
(249,17,o),
(317,-9,o),
(358,-9,qs),
(430,-9,o),
(529,70,o),
(576,194,o),
(576,260,qs),
(576,336,o),
(518,447,o),
(423,504,o),
(368,504,qs),
(328,504,o),
(255,469,o),
(204,421,o),
(195,404,q),
(195,501,l),
(35,466,l),
(35,429,l),
(71,429,o),
(108,408,o),
(108,381,qs),
(108,-174,ls),
(108,-192,o),
(58,-213,o),
(23,-213,q),
(23,-250,l),
(279,-250,l),
(279,-213,l),
(237,-213,o),
(198,-194,o),
(198,-174,qs)
);
},
{
closed = 1;
nodes = (
(196,340,ls),
(196,347,o),
(236,400,o),
(302,443,o),
(342,443,qs),
(404,443,o),
(476,343,o),
(476,260,qs),
(476,161,o),
(405,37,o),
(335,37,qs),
(298,37,o),
(236,80,o),
(197,133,o),
(196,141,q)
);
}
);
width = 613;
},
{
layerId = "5DE1D38C-81A0-4B83-9AA1-881E508EE934";
shapes = (
{
closed = 1;
nodes = (
(197,67,l),
(204,53,o),
(251,17,o),
(320,-9,o),
(358,-9,qs),
(430,-9,o),
(529,70,o),
(576,194,o),
(576,260,qs),
(576,336,o),
(518,447,o),
(423,504,o),
(368,504,qs),
(328,504,o),
(255,469,o),
(204,421,o),
(195,404,q),
(195,501,l),
(35,466,l),
(35,463,l),
(71,463,o),
(108,442,o),
(108,415,qs),
(108,-211,ls),
(108,-229,o),
(58,-250,o),
(23,-250,q),
(23,-250,l),
(279,-250,l),
(279,-250,l),
(237,-250,o),
(198,-231,o),
(198,-211,qs)
);
},
{
closed = 1;
nodes = (
(195,404,l),
(204,421,o),
(255,469,o),
(328,504,o),
(368,504,qs),
(425,504,o),
(476,358,o),
(476,260,qs),
(476,146,o),
(424,-9,o),
(358,-9,qs),
(320,-9,o),
(251,17,o),
(204,53,o),
(197,67,q)
);
}
);
width = 603;
}
);
note = p;
unicode = 112;
},
{
glyphname = q;
layers = (
{
layerId = m01;
shapes = (
{
closed = 1;
nodes = (
(417,144,l),
(416,136,o),
(377,82,o),
(315,37,o),
(278,37,qs),
(208,37,o),
(137,165,o),
(137,265,qs),
(137,319,o),
(169,402,o),
(230,448,o),
(271,448,qs),
(311,448,o),
(377,405,o),
(417,352,o),
(417,345,qs)
);
},
{
closed = 1;
nodes = (
(507,500,l),
(437,500,l),
(418,409,l),
(400,444,o),
(322,509,o),
(265,509,qs),
(210,509,o),
(104,447,o),
(37,331,o),
(37,255,qs),
(37,139,o),
(146,-9,o),
(255,-9,qs),
(296,-9,o),
(365,20,o),
(410,58,o),
(418,73,q),
(417,-247,l),
(603,-215,l),
(603,-178,l),
(550,-178,o),
(507,-162,o),
(507,-132,qs)
);
}
);
width = 613;
},
{
layerId = "5DE1D38C-81A0-4B83-9AA1-881E508EE934";
shapes = (
{
closed = 1;
nodes = (
(389,73,l),
(382,59,o),
(333,20,o),
(264,-9,o),
(226,-9,qs),
(160,-9,o),
(108,150,o),
(108,265,qs),
(108,322,o),
(139,435,o),
(197,509,o),
(236,509,qs),
(277,509,o),
(340,474,o),
(379,429,o),
(389,409,q)
);
},
{
closed = 1;
nodes = (
(478,500,l),
(448,500,l),
(389,409,l),
(371,444,o),
(294,509,o),
(236,509,qs),
(181,509,o),
(75,447,o),
(8,331,o),
(8,255,qs),
(8,139,o),
(117,-9,o),
(226,-9,qs),
(264,-9,o),
(333,20,o),
(382,59,o),
(389,73,q),
(388,-247,l),
(574,-215,l),
(574,-215,l),
(521,-215,o),
(478,-199,o),
(478,-169,qs)
);
}
);
width = 599;
}
);
note = q;
unicode = 113;
},
{
glyphname = r;
layers = (
{
layerId = m01;
shapes = (
{
closed = 1;
nodes = (
(379,369,l),
(329,369,l),
(329,398,o),
(311,426,o),
(288,432,o),
(271,432,qs),
(269,432,ls),
(242,432,o),
(197,391,o),
(184,359,q),
(184,85,ls),
(184,58,o),
(226,37,o),
(266,37,q),
(266,0,l),
(10,0,l),
(10,37,l),
(49,37,o),
(94,58,o),
(94,85,qs),
(94,392,ls),
(94,415,o),
(60,426,o),
(20,426,q),
(20,463,l),
(184,500,l),
(184,429,l),
(192,453,o),
(241,489,o),
(257,494,qs),
(261,495,ls),
(278,502,o),
(326,509,o),
(379,509,q)
);
}
);
width = 383;
},
{
layerId = "5DE1D38C-81A0-4B83-9AA1-881E508EE934";
shapes = (
{
closed = 1;
nodes = (
(379,369,l),
(349,369,l),
(349,408,o),
(314,467,o),
(270,496,o),
(259,494,qs),
(257,494,l),
(239,488,o),
(192,452,o),
(184,429,q),
(184,48,ls),
(184,21,o),
(226,0,o),
(266,0,q),
(266,0,l),
(10,0,l),
(10,0,l),
(49,0,o),
(94,21,o),
(94,48,qs),
(94,426,ls),
(94,449,o),
(58,463,o),
(20,463,q),
(20,463,l),
(184,500,l),
(184,429,l),
(192,452,o),
(239,488,o),
(257,494,qs),
(261,495,ls),
(278,502,o),
(326,509,o),
(379,509,q)
);
}
);
width = 440;
}
);
note = r;
unicode = 114;
},
{
glyphname = s;
layers = (
{
layerId = m01;
shapes = (
{
closed = 1;
nodes = (
(153,509,o),
(46,437,o),
(46,373,qs),
(46,311,o),
(125,241,o),
(222,223,qs),
(278,213,o),
(336,187,o),
(354,156,o),
(354,134,qs),
(354,97,o),
(282,46,o),
(227,46,qs),
(174,46,o),
(117,74,o),
(103,104,qs),
(88,136,l),
(43,136,l),
(43,62,l),
(72,30,o),
(160,0,o),
(227,0,qs),
(317,0,o),
(431,80,o),
(431,152,qs),
(431,214,o),
(357,286,o),
(260,305,qs),
(206,315,o),
(145,344,o),
(123,376,o),
(123,396,qs),
(123,426,o),
(183,463,o),
(229,463,qs),
(265,463,o),
(308,449,o),
(330,426,o),
(334,409,qs),
(338,393,l),
(385,393,l),
(385,473,l),
(373,478,ls),
(332,494,o),
(260,509,o),
(229,509,qs)
);
}
);
width = 468;
},
{
layerId = "5DE1D38C-81A0-4B83-9AA1-881E508EE934";
shapes = (
{
closed = 1;
nodes = (
(153,509,o),
(46,437,o),
(46,373,qs),
(46,311,o),
(125,241,o),
(222,223,qs),
(288,211,o),
(355,190,o),
(388,154,o),
(388,121,qs),
(388,66,o),
(309,0,o),
(227,0,qs),
(167,0,o),
(103,60,o),
(83,104,qs),
(68,136,l),
(43,136,l),
(43,62,l),
(72,30,o),
(160,0,o),
(227,0,qs),
(317,0,o),
(431,80,o),
(431,152,qs),
(431,214,o),
(357,286,o),
(260,305,qs),
(193,318,o),
(123,338,o),
(85,371,o),
(85,398,qs),
(85,452,o),
(167,509,o),
(229,509,qs),
(263,509,o),
(317,474,o),
(349,427,o),
(354,409,qs),
(358,393,l),
(385,393,l),
(385,473,l),
(374,478,ls),
(328,497,o),
(277,509,o),
(229,509,qs)
);
}
);
width = 480;
}
);
note = s;
unicode = 115;
},
{
glyphname = t;
layers = (
{
layerId = m01;
shapes = (
{
closed = 1;
nodes = (
(324,500,l),
(200,500,l),
(200,668,l),
(154,668,l),
(154,597,o),
(138,529,o),
(86,500,o),
(30,500,q),
(10,454,l),
(109,454,l),
(109,135,ls),
(109,81,o),
(124,19,o),
(164,-9,o),
(200,-9,qs),
(248,-9,o),
(312,22,o),
(343,63,q),
(305,92,l),
(283,64,o),
(233,47,o),
(200,86,o),
(200,135,qs),
(200,454,l),
(304,454,l)
);
}
);
width = 348;
},
{
layerId = "5DE1D38C-81A0-4B83-9AA1-881E508EE934";
shapes = (
{
closed = 1;
nodes = (
(357,500,l),
(233,500,l),
(233,668,l),
(233,668,l),
(233,603,o),
(195,530,o),
(121,500,o),
(63,500,qs),
(43,500,l),
(142,500,l),
(142,135,ls),
(142,81,o),
(157,19,o),
(197,-9,o),
(233,-9,qs),
(281,-9,o),
(345,22,o),
(376,63,q),
(376,63,l),
(355,36,o),
(286,15,o),
(233,36.273,o),
(233,63,qs),
(233,500,l),
(337,500,l)
);
}
);
width = 373;
}
);
note = t;
unicode = 116;
},
{
glyphname = u;
layers = (
{
layerId = m01;
shapes = (
{
closed = 1;
nodes = (
(88,237,ls),
(88,110,o),
(158,-9,o),
(250,-9,qs),
(297,-9,o),
(384,56,o),
(409,101,q),
(409,-1,l),
(573,33,l),
(573,70,l),
(555,70,ls),
(523,69,o),
(499,77,o),
(499,96,qs),
(499,501,l),
(335,467,l),
(335,430,l),
(344,430,ls),
(381,430,o),
(409,422,o),
(409,404,qs),
(409,161,l),
(382,116,o),
(310,74,o),
(270,74,qs),
(234,74,o),
(195,106,o),
(178,176,o),
(178,236,qs),
(179,501,l),
(15,467,l),
(15,430,l),
(34,430,ls),
(65,431,o),
(89,423,o),
(89,404,qs)
);
}
);
width = 596;
},
{
layerId = "5DE1D38C-81A0-4B83-9AA1-881E508EE934";
shapes = (
{
closed = 1;
nodes = (
(88,237,ls),
(88,110,o),
(158,-9,o),
(250,-9,qs),
(298,-9,o),
(379,51,o),
(409,101,q),
(409,-1,l),
(573,33,l),
(573,33,l),
(555,33,ls),
(523,32,o),
(499,40,o),
(499,59,qs),
(499,501,l),
(335,467,l),
(335,467,l),
(344,467,ls),
(381,467,o),
(409,459,o),
(409,441,qs),
(409,101,l),
(379,51,o),
(298,-9,o),
(250,-9,qs),
(217,-9,o),
(186,60,o),
(178,158,o),
(178,236,qs),
(179,501,l),
(15,467,l),
(15,467,l),
(34,467,ls),
(65,468,o),
(89,460,o),
(89,441,qs)
);
}
);
width = 618;
}
);
note = u;
unicode = 117;
},
{
glyphname = v;
layers = (
{
layerId = m01;
shapes = (
{
closed = 1;
nodes = (
(633,500,l),
(376,500,l),
(376,463,l),
(429,463,o),
(476,443,o),
(479,398,o),
(461,359,qs),
(346,110,l),
(229,359,ls),
(210,400,o),
(203,443,o),
(231,463,o),
(268,463,q),
(267,500,l),
(10,500,l),
(10,463,l),
(45,463,o),
(78,450,o),
(105,411,o),
(129,359,qs),
(299,0,l),
(352,12,l),
(511,359,ls),
(535,410,o),
(563,451,o),
(597,463,o),
(633,463,q)
);
}
);
width = 643;
},
{
layerId = "5DE1D38C-81A0-4B83-9AA1-881E508EE934";
shapes = (
{
closed = 1;
nodes = (
(633,500,l),
(376,500,l),
(376,500,l),
(431,500,o),
(503,479,o),
(528,433,o),
(511,396,qs),
(373,62,l),
(229,396,ls),
(210,437,o),
(203,480,o),
(230,500,o),
(267,500,q),
(267,500,l),
(10,500,l),
(10,500,l),
(45,500,o),
(78,487,o),
(105,448,o),
(129,396,qs),
(299,0,l),
(352,12,l),
(511,396,l),
(535,447,o),
(563,488,o),
(597,500,o),
(633,500,q)
);
}
);
width = 683;
}
);
note = v;
unicode = 118;
},
{
glyphname = w;
layers = (
{
layerId = m01;
shapes = (
{
closed = 1;
nodes = (
(834,500,l),
(616,500,l),
(616,463,l),
(663,463,o),
(702,451,o),
(706,422,o),
(695,391,qs),
(598,112,l),
(494,394,ls),
(482,427,o),
(480,454,o),
(505,463,o),
(539,463,q),
(539,500,l),
(307,500,l),
(307,463,l),
(333,463,o),
(360,450,o),
(382,415,o),
(399,374,q),
(307,112,l),
(193,394,ls),
(192,396,o),
(191,398,qs),
(180,428,o),
(178,452,o),
(203,463,o),
(239,463,q),
(239,500,l),
(10,500,l),
(10,463,l),
(40,463,o),
(71,448,o),
(95,408,o),
(114,360,qs),
(259,0,l),
(321,11,l),
(429,321,l),
(547,0,l),
(612,11,l),
(732,359,ls),
(749,408,o),
(771,448,o),
(802,463,o),
(834,463,q)
);
}
);
width = 844;
},
{
layerId = "5DE1D38C-81A0-4B83-9AA1-881E508EE934";
shapes = (
{
closed = 1;
nodes = (
(834,500,l),
(616,500,l),
(616,500,l),
(661,500,o),
(719,472,o),
(740,425,o),
(732,396,qs),
(629,27,l),
(494,431,ls),
(483,465,o),
(481,491,o),
(505,500,o),
(539,500,q),
(539,500,l),
(307,500,l),
(307,500,l),
(331,500,o),
(374,462,o),
(411,400,o),
(429,358,q),
(340,28,l),
(193,431,l),
(192,432,o),
(192,435,q),
(181,465,o),
(179,489,o),
(204,500,o),
(239,500,q),
(239,500,l),
(10,500,l),
(10,500,l),
(40,500,o),
(72,485,o),
(97,444,o),
(114,397,qs),
(259,0,l),
(340,28,l),
(429,358,l),
(547,0,l),
(629,27,l),
(732,396,ls),
(745,442,o),
(768,485,o),
(802,500,o),
(834,500,q)
);
}
);
width = 864;
}
);
note = w;
unicode = 119;
},
{
glyphname = x;
layers = (
{
layerId = m01;
shapes = (
{
closed = 1;
nodes = (
(126,419,ls),
(108,446,o),
(86,467,o),
(56,474,o),
(25,474,q),
(25,500,l),
(290,500,l),
(290,474,l),
(248,474,o),
(220,468,o),
(223,447,o),
(242,419,qs),
(468,81,ls),
(486,54,o),
(509,32,o),
(536,26,o),
(564,26,q),
(564,0,l),
(299,0,l),
(299,26,l),
(342,26,o),
(373,34,o),
(369,56,o),
(352,81,qs)
);
},
{
closed = 1;
nodes = (
(380,419,ls),
(400,445,o),
(404,467,o),
(376,474,o),
(338,474,q),
(338,500,l),
(559,500,l),
(559,474,l),
(545,474,ls),
(514,473,o),
(483,466,o),
(457,445,o),
(437,419,qs),
(173,81,l),
(167,73,ls),
(151,52,o),
(150,33,o),
(181,26,o),
(221,26,q),
(221,0,l),
(10,0,l),
(10,26,l),
(41,26,o),
(72,33,o),
(96,54,o),
(117,81,qs)
);
}
);
width = 574;
},
{
layerId = "5DE1D38C-81A0-4B83-9AA1-881E508EE934";
shapes = (
{
closed = 1;
nodes = (
(126,445,ls),
(111,472,o),
(88,494,o),
(57,500,o),
(25,500,q),
(25,500,l),
(290,500,l),
(290,500,l),
(247,500,o),
(221,495,o),
(225,474,o),
(242,445,qs),
(468,55,ls),
(484,28,o),
(508,5,o),
(535,0,o),
(564,0,q),
(564,0,l),
(299,0,l),
(299,0,l),
(343,0,o),
(372,7,o),
(368,28,o),
(352,55,qs)
);
},
{
closed = 1;
nodes = (
(380,445,ls),
(395,474,o),
(399,494,o),
(376,500,o),
(338,500,q),
(338,500,l),
(559,500,l),
(559,500,l),
(544,500,ls),
(499,500,o),
(444,495,o),
(394,471,o),
(380,445,qs),
(173,55,l),
(169,47,ls),
(156,23,o),
(153,6,o),
(180,0,o),
(221,0,q),
(221,0,l),
(10,0,l),
(10,0,l),
(48,0,o),
(108,7,o),
(160,31,o),
(173,55,qs)
);
}
);
width = 641;
}
);
note = x;
unicode = 120;
},
{
glyphname = y;
layers = (
{
layerId = m01;
shapes = (
{
closed = 1;
nodes = (
(334,104,l),
(448,353,ls),
(472,404,o),
(471,450,o),
(425,463,o),
(367,463,q),
(367,500,l),
(624,500,l),
(624,463,l),
(588,463,o),
(554,451,o),
(526,410,o),
(502,359,qs),
(285,-114,ls),
(260,-167,o),
(218,-225,o),
(170,-250,o),
(135,-250,qs),
(38,-250,l),
(38,-109,l),
(90,-109,l),
(89,-157,o),
(122,-204,o),
(149,-204,qs),
(173,-204,o),
(215,-155,o),
(240,-101,qs),
(285,-4,l),
(119,360,ls),
(97,410,o),
(69,450,o),
(35,463,o),
(0,463,q),
(0,500,l),
(257,500,l),
(258,463,l),
(221,463,o),
(192,450,o),
(197,407,o),
(219,359,qs)
);
}
);
width = 634;
},
{
layerId = "5DE1D38C-81A0-4B83-9AA1-881E508EE934";
shapes = (
{
closed = 1;
nodes = (
(365,75,l),
(502,396,ls),
(522,443,o),
(498,488,o),
(431,500,o),
(367,500,q),
(367,500,l),
(624,500,l),
(624,500,l),
(588,500,o),
(553,488,o),
(524,446,o),
(502,396,qs),
(285,-114,ls),
(264,-163,o),
(221,-222,o),
(169,-250,o),
(135,-250,qs),
(60,-250,l),
(60,-109,l),
(90,-109,l),
(89,-165,o),
(112,-250,o),
(135,-250,qs),
(185,-250,o),
(254,-187,o),
(285,-114,qs),
(315,-43,l),
(119,397,ls),
(97,447,o),
(69,487,o),
(35,500,o),
(0,500,q),
(0,500,l),
(257,500,l),
(258,500,ls),
(220,500,o),
(192,488,o),
(197,445,o),
(219,396,qs)
);
}
);
width = 661;
}
);
note = y;
unicode = 121;
},
{
glyphname = z;
layers = (
{
layerId = m01;
shapes = (
{
closed = 1;
nodes = (
(134,454,ls),
(108,454,o),
(82,443,o),
(69,408,o),
(69,370,q),
(19,370,l),
(19,500,l),
(461,500,l),
(461,464,l),
(133,46,l),
(359,46,ls),
(385,46,o),
(413,58,o),
(425,94,o),
(425,130,q),
(475,130,l),
(475,0,l),
(19,0,l),
(19,36,l),
(348,454,l)
);
}
);
width = 509;
},
{
layerId = "5DE1D38C-81A0-4B83-9AA1-881E508EE934";
shapes = (
{
closed = 1;
nodes = (
(134,500,ls),
(112,500,o),
(83,468,o),
(69,410,o),
(69,370,q),
(39,370,l),
(39,500,l),
(461,500,l),
(461,464,l),
(97,0,l),
(359,0,ls),
(384,0,o),
(413,26,o),
(425,82,o),
(425,130,q),
(455,130,l),
(455,0,l),
(19,0,l),
(19,36,l),
(382,500,l)
);
}
);
width = 509;
}
);
note = z;
unicode = 122;
},
